<?xml version="1.0" encoding="UTF-8"?>
<svg width="250px" height="59px" viewBox="0 0 250 59" version="1.1" xmlns="http://www.w3.org/2000/svg" xmlns:xlink="http://www.w3.org/1999/xlink">
    <!-- Generator: Sketch 54.1 (76490) - https://sketchapp.com -->
    <title>Artboard Copy 3</title>
    <desc>Created with Sketch.</desc>
    <g id="Artboard-Copy-3" stroke="none" stroke-width="1" fill="none" fill-rule="evenodd">
        <rect fill="#FF5500" x="0" y="0" width="250" height="59"></rect>
        <g id="Group" transform="translate(85.000000, 9.000000)" fill="#FFFFFF" font-family="Roboto-Medium, Roboto Medium" font-size="18" font-weight="normal">
            <text id="The-Simple-Password">
                <tspan x="0" y="17">The Simple   </tspan>
                <tspan x="0" y="38">Password Manager</tspan>
            </text>
        </g>
        <path d="M24,16 L63,16 C67.418278,16 71,19.581722 71,24 L71,37 C71,41.418278 67.418278,45 63,45 L24,45 C19.581722,45 16,41.418278 16,37 L16,24 C16,19.581722 19.581722,16 24,16 Z M27.1875,30.8125 L23.953125,35.0625 L26.234375,36.65625 L29.015625,32.296875 L31.828125,36.796875 L34.09375,35.140625 L30.96875,30.984375 L35.8125,29.609375 L34.96875,26.921875 L30.328125,28.71875 L30.5625,23.25 L27.765625,23.25 L28,28.625 L23.28125,26.796875 L22.421875,29.4375 L27.1875,30.8125 Z M41.328125,30.8125 L38.09375,35.0625 L40.375,36.65625 L43.15625,32.296875 L45.96875,36.796875 L48.234375,35.140625 L45.109375,30.984375 L49.953125,29.609375 L49.109375,26.921875 L44.46875,28.71875 L44.703125,23.25 L41.90625,23.25 L42.140625,28.625 L37.421875,26.796875 L36.5625,29.4375 L41.328125,30.8125 Z M55.46875,30.8125 L52.234375,35.0625 L54.515625,36.65625 L57.296875,32.296875 L60.109375,36.796875 L62.375,35.140625 L59.25,30.984375 L64.09375,29.609375 L63.25,26.921875 L58.609375,28.71875 L58.84375,23.25 L56.046875,23.25 L56.28125,28.625 L51.5625,26.796875 L50.703125,29.4375 L55.46875,30.8125 Z" id="Combined-Shape" fill="#FFFFFF"></path>
    </g>
</svg>