<?xml version="1.0" encoding="UTF-8"?>
<svg width="223px" height="120px" viewBox="0 0 223 120" version="1.1" xmlns="http://www.w3.org/2000/svg" xmlns:xlink="http://www.w3.org/1999/xlink">
    <!-- Generator: Sketch 54.1 (76490) - https://sketchapp.com -->
    <title>logo copy</title>
    <desc>Created with Sketch.</desc>
    <g id="logo-copy" stroke="none" stroke-width="1" fill="none" fill-rule="evenodd">
        <path d="M39.2006836,62.6689453 C39.2006836,61.2936129 38.6346899,60.2462601 37.5026855,59.5268555 C36.3706812,58.8074508 34.4928517,58.1726916 31.8691406,57.6225586 C29.2454296,57.0724256 27.0555101,56.3741904 25.2993164,55.527832 C21.4483857,53.6658436 19.5229492,50.9681166 19.5229492,47.4345703 C19.5229492,44.4723159 20.7713091,41.9967547 23.2680664,40.0078125 C25.7648237,38.0188703 28.9386201,37.0244141 32.7895508,37.0244141 C36.894389,37.0244141 40.2110062,38.0400289 42.739502,40.0712891 C45.2679977,42.1025492 46.5322266,44.7368002 46.5322266,47.9741211 L38.8198242,47.9741211 C38.8198242,46.4929939 38.2696995,45.260503 37.1694336,44.2766113 C36.0691677,43.2927197 34.6092213,42.8007812 32.7895508,42.8007812 C31.096834,42.8007812 29.7162326,43.1922161 28.6477051,43.9750977 C27.5791776,44.7579792 27.0449219,45.805332 27.0449219,47.1171875 C27.0449219,48.3020893 27.54215,49.2224902 28.5366211,49.878418 C29.5310922,50.5343457 31.5411633,51.1955533 34.5668945,51.8620605 C37.5926258,52.5285678 39.9676834,53.3220169 41.6921387,54.2424316 C43.4165939,55.1628464 44.6966918,56.2683855 45.5324707,57.559082 C46.3682496,58.8497786 46.7861328,60.4155181 46.7861328,62.2563477 C46.7861328,65.3455558 45.5060349,67.8475653 42.9458008,69.7624512 C40.3855666,71.677337 37.0319218,72.6347656 32.8847656,72.6347656 C30.070624,72.6347656 27.5633248,72.1269582 25.362793,71.1113281 C23.1622611,70.095698 21.4484111,68.6992276 20.2211914,66.921875 C18.9939717,65.1445224 18.3803711,63.2296652 18.3803711,61.1772461 L25.8706055,61.1772461 C25.9764003,62.9969167 26.6640562,64.3986767 27.9335938,65.3825684 C29.2031313,66.36646 30.8852434,66.8583984 32.9799805,66.8583984 C35.0112406,66.8583984 36.5558215,66.4722532 37.6137695,65.6999512 C38.6717175,64.9276491 39.2006836,63.917324 39.2006836,62.6689453 Z M61.703125,72 L53.9907227,72 L53.9907227,37.6591797 L61.703125,37.6591797 L61.703125,72 Z M53.5146484,28.7407227 C53.5146484,27.5558209 53.8902143,26.571944 54.6413574,25.7890625 C55.3925005,25.006181 56.4663016,24.6147461 57.862793,24.6147461 C59.2592843,24.6147461 60.3383751,25.006181 61.1000977,25.7890625 C61.8618202,26.571944 62.2426758,27.5558209 62.2426758,28.7407227 C62.2426758,29.9044655 61.8618202,30.8724734 61.1000977,31.6447754 C60.3383751,32.4170774 59.2592843,32.8032227 57.862793,32.8032227 C56.4663016,32.8032227 55.3925005,32.4170774 54.6413574,31.6447754 C53.8902143,30.8724734 53.5146484,29.9044655 53.5146484,28.7407227 Z M77.3500977,37.6591797 L77.5722656,41.2456055 C79.9843871,38.4314638 83.2851353,37.0244141 87.4746094,37.0244141 C92.0661037,37.0244141 95.2081621,38.7805814 96.9008789,42.2929688 C99.3976362,38.7805814 102.909971,37.0244141 107.437988,37.0244141 C111.225442,37.0244141 114.044831,38.0717669 115.89624,40.1665039 C117.747649,42.2612409 118.694498,45.3504028 118.736816,49.434082 L118.736816,72 L111.024414,72 L111.024414,49.65625 C111.024414,47.4768771 110.548345,45.8793996 109.596191,44.8637695 C108.644038,43.8481395 107.067719,43.340332 104.867188,43.340332 C103.110994,43.340332 101.677496,43.8111118 100.56665,44.7526855 C99.455805,45.6942593 98.6782249,46.9267502 98.2338867,48.4501953 L98.265625,72 L90.5532227,72 L90.5532227,49.4023438 C90.4474279,45.3609824 88.3844602,43.340332 84.3642578,43.340332 C81.2750497,43.340332 79.0851302,44.5992713 77.7944336,47.1171875 L77.7944336,72 L70.0820312,72 L70.0820312,37.6591797 L77.3500977,37.6591797 Z M156.727539,55.1787109 C156.727539,60.4896099 155.521496,64.7266281 153.109375,67.8898926 C150.697254,71.0531571 147.459981,72.6347656 143.397461,72.6347656 C139.631166,72.6347656 136.616059,71.396985 134.352051,68.9213867 L134.352051,85.203125 L126.639648,85.203125 L126.639648,37.6591797 L133.749023,37.6591797 L134.066406,41.1503906 C136.330415,38.3997258 139.408997,37.0244141 143.302246,37.0244141 C147.49172,37.0244141 150.776599,38.584864 153.156982,41.7058105 C155.537365,44.8267571 156.727539,49.1589892 156.727539,54.7026367 L156.727539,55.1787109 Z M149.046875,54.512207 C149.046875,51.0844555 148.364509,48.3655699 146.999756,46.3554688 C145.635003,44.3453676 143.683118,43.340332 141.144043,43.340332 C137.991358,43.340332 135.727383,44.6415885 134.352051,47.2441406 L134.352051,62.4785156 C135.748542,65.1445446 138.033676,66.4775391 141.20752,66.4775391 C143.661959,66.4775391 145.582106,65.4883725 146.968018,63.5100098 C148.353929,61.531647 149.046875,58.5324094 149.046875,54.512207 Z M171.454102,72 L163.741699,72 L163.741699,23.25 L171.454102,23.25 L171.454102,72 Z M194.972168,72.6347656 C190.084448,72.6347656 186.122492,71.0954744 183.086182,68.0168457 C180.049871,64.938217 178.531738,60.83873 178.531738,55.7182617 L178.531738,54.7661133 C178.531738,51.3383618 179.192946,48.2756483 180.515381,45.5778809 C181.837816,42.8801135 183.694487,40.7801182 186.085449,39.277832 C188.476412,37.7755459 191.142401,37.0244141 194.083496,37.0244141 C198.759626,37.0244141 202.372464,38.5160984 204.922119,41.4995117 C207.471774,44.4829251 208.746582,48.7040743 208.746582,54.1630859 L208.746582,57.2734375 L186.307617,57.2734375 C186.540366,60.1087381 187.487215,62.3515542 189.148193,64.0019531 C190.809172,65.652352 192.898588,66.4775391 195.416504,66.4775391 C198.95005,66.4775391 201.827626,65.0493307 204.049316,62.1928711 L208.207031,66.1601562 C206.831699,68.2125754 204.996187,69.8047632 202.700439,70.9367676 C200.404692,72.0687719 197.828628,72.6347656 194.972168,72.6347656 Z M194.051758,43.2133789 C191.935862,43.2133789 190.227301,43.9539314 188.926025,45.4350586 C187.624749,46.9161858 186.794273,48.9791534 186.43457,51.6240234 L201.129395,51.6240234 L201.129395,51.0527344 C200.960123,48.4713413 200.272467,46.5194565 199.066406,45.1970215 C197.860346,43.8745865 196.188813,43.2133789 194.051758,43.2133789 Z M25.6835938,100.212402 C25.6835938,101.723966 25.3403355,102.929886 24.6538086,103.8302 C23.9672817,104.730514 23.0459042,105.180664 21.8896484,105.180664 C20.817703,105.180664 19.9595573,104.828373 19.3151855,104.123779 L19.3151855,108.757812 L17.1201172,108.757812 L17.1201172,95.2260742 L19.1435547,95.2260742 L19.2338867,96.2197266 C19.8782584,95.436845 20.7544704,95.0454102 21.8625488,95.0454102 C23.0549376,95.0454102 23.9898648,95.4895382 24.6673584,96.3778076 C25.344852,97.266077 25.6835938,98.4990969 25.6835938,100.076904 L25.6835938,100.212402 Z M23.4975586,100.022705 C23.4975586,99.0471143 23.3033467,98.2732776 22.914917,97.7011719 C22.5264873,97.1290661 21.9709509,96.8430176 21.248291,96.8430176 C20.3509884,96.8430176 19.7066263,97.2133752 19.3151855,97.9541016 L19.3151855,102.290039 C19.7126485,103.048832 20.3630326,103.428223 21.2663574,103.428223 C21.9649286,103.428223 22.5114319,103.146691 22.9058838,102.583618 C23.3003356,102.020546 23.4975586,101.166917 23.4975586,100.022705 Z M33.3798828,105 C33.2835282,104.813313 33.1992191,104.509198 33.1269531,104.087646 C32.4283819,104.816329 31.5732472,105.180664 30.5615234,105.180664 C29.5799105,105.180664 28.7789745,104.900638 28.1586914,104.340576 C27.5384084,103.780515 27.2282715,103.087976 27.2282715,102.262939 C27.2282715,101.221105 27.6151898,100.421674 28.3890381,99.864624 C29.1628864,99.3075737 30.2694427,99.0290527 31.7087402,99.0290527 L33.0546875,99.0290527 L33.0546875,98.3876953 C33.0546875,97.8818334 32.9131687,97.4768489 32.630127,97.1727295 C32.3470852,96.8686101 31.9165068,96.7165527 31.3383789,96.7165527 C30.8385392,96.7165527 30.4290381,96.8415108 30.1098633,97.0914307 C29.7906885,97.3413505 29.6311035,97.659015 29.6311035,98.0444336 L27.4360352,98.0444336 C27.4360352,97.5084609 27.6136864,97.0071231 27.9689941,96.5404053 C28.3243019,96.0736874 28.8075734,95.7078464 29.4188232,95.4428711 C30.030073,95.1778958 30.7120731,95.0454102 31.4648438,95.0454102 C32.6090552,95.0454102 33.5213996,95.3329642 34.2019043,95.9080811 C34.882409,96.4831979 35.2316894,97.2916615 35.2497559,98.3334961 L35.2497559,102.741699 C35.2497559,103.620935 35.3732084,104.322507 35.6201172,104.846436 L35.6201172,105 L33.3798828,105 Z M30.9680176,103.419189 C31.4016135,103.419189 31.8096091,103.313803 32.1920166,103.103027 C32.5744241,102.892252 32.8619782,102.609214 33.0546875,102.253906 L33.0546875,100.411133 L31.8713379,100.411133 C31.0583455,100.411133 30.4471049,100.552652 30.0375977,100.835693 C29.6280904,101.118735 29.4233398,101.519203 29.4233398,102.037109 C29.4233398,102.458661 29.5633531,102.794392 29.8433838,103.044312 C30.1234145,103.294231 30.4982887,103.419189 30.9680176,103.419189 Z M43.0273438,102.344238 C43.0273438,101.952798 42.8662532,101.654705 42.5440674,101.449951 C42.2218815,101.245198 41.6874224,101.064535 40.9406738,100.907959 C40.1939253,100.751383 39.5706405,100.552654 39.0708008,100.311768 C37.9747667,99.781817 37.4267578,99.0140024 37.4267578,98.0083008 C37.4267578,97.1651976 37.7820602,96.4606148 38.4926758,95.8945312 C39.2032913,95.3284477 40.1066026,95.0454102 41.2026367,95.0454102 C42.3709368,95.0454102 43.3148971,95.3344698 44.0345459,95.9125977 C44.7541947,96.4907255 45.1140137,97.2404739 45.1140137,98.1618652 L42.9189453,98.1618652 C42.9189453,97.7403136 42.7623714,97.3895278 42.4492188,97.1094971 C42.1360661,96.8294664 41.720543,96.6894531 41.2026367,96.6894531 C40.7208635,96.6894531 40.3279231,96.8008615 40.0238037,97.0236816 C39.7196844,97.2465018 39.567627,97.5445945 39.567627,97.9179688 C39.567627,98.25521 39.7091457,98.5171703 39.9921875,98.7038574 C40.2752293,98.8905446 40.8473264,99.0787344 41.7084961,99.2684326 C42.5696658,99.4581308 43.2456437,99.6839587 43.7364502,99.9459229 C44.2272567,100.207887 44.5915922,100.52254 44.8294678,100.889893 C45.0673433,101.257245 45.1862793,101.702878 45.1862793,102.226807 C45.1862793,103.106043 44.8219437,103.818153 44.0932617,104.363159 C43.3645797,104.908165 42.4100808,105.180664 41.2297363,105.180664 C40.4287883,105.180664 39.7151724,105.036134 39.0888672,104.74707 C38.462562,104.458006 37.9747739,104.060549 37.6254883,103.554688 C37.2762027,103.048826 37.1015625,102.503828 37.1015625,101.919678 L39.2333984,101.919678 C39.2635093,102.437584 39.4592267,102.836546 39.8205566,103.116577 C40.1818866,103.396608 40.6606416,103.536621 41.2568359,103.536621 C41.8349638,103.536621 42.2745753,103.426718 42.5756836,103.206909 C42.8767919,102.9871 43.0273438,102.699546 43.0273438,102.344238 Z M52.5754395,102.344238 C52.5754395,101.952798 52.4143489,101.654705 52.0921631,101.449951 C51.7699772,101.245198 51.2355181,101.064535 50.4887695,100.907959 C49.742021,100.751383 49.1187362,100.552654 48.6188965,100.311768 C47.5228624,99.781817 46.9748535,99.0140024 46.9748535,98.0083008 C46.9748535,97.1651976 47.330156,96.4606148 48.0407715,95.8945312 C48.751387,95.3284477 49.6546983,95.0454102 50.7507324,95.0454102 C51.9190325,95.0454102 52.8629928,95.3344698 53.5826416,95.9125977 C54.3022904,96.4907255 54.6621094,97.2404739 54.6621094,98.1618652 L52.467041,98.1618652 C52.467041,97.7403136 52.3104671,97.3895278 51.9973145,97.1094971 C51.6841618,96.8294664 51.2686387,96.6894531 50.7507324,96.6894531 C50.2689592,96.6894531 49.8760188,96.8008615 49.5718994,97.0236816 C49.2677801,97.2465018 49.1157227,97.5445945 49.1157227,97.9179688 C49.1157227,98.25521 49.2572414,98.5171703 49.5402832,98.7038574 C49.823325,98.8905446 50.3954221,99.0787344 51.2565918,99.2684326 C52.1177615,99.4581308 52.7937394,99.6839587 53.2845459,99.9459229 C53.7753524,100.207887 54.1396879,100.52254 54.3775635,100.889893 C54.615439,101.257245 54.734375,101.702878 54.734375,102.226807 C54.734375,103.106043 54.3700395,103.818153 53.6413574,104.363159 C52.9126754,104.908165 51.9581765,105.180664 50.777832,105.180664 C49.976884,105.180664 49.2632681,105.036134 48.6369629,104.74707 C48.0106577,104.458006 47.5228696,104.060549 47.173584,103.554688 C46.8242984,103.048826 46.6496582,102.503828 46.6496582,101.919678 L48.7814941,101.919678 C48.811605,102.437584 49.0073224,102.836546 49.3686523,103.116577 C49.7299823,103.396608 50.2087373,103.536621 50.8049316,103.536621 C51.3830595,103.536621 51.822671,103.426718 52.1237793,103.206909 C52.4248876,102.9871 52.5754395,102.699546 52.5754395,102.344238 Z M65.230957,101.973877 L66.784668,95.2260742 L68.9255371,95.2260742 L66.2607422,105 L64.4541016,105 L62.3583984,98.2883301 L60.2988281,105 L58.4921875,105 L55.8183594,95.2260742 L57.9592285,95.2260742 L59.5400391,101.901611 L61.5454102,95.2260742 L63.1984863,95.2260742 L65.230957,101.973877 Z M69.9824219,100.022705 C69.9824219,99.0651808 70.1721172,98.2025185 70.5515137,97.4346924 C70.9309101,96.6668663 71.4638638,96.0767029 72.1503906,95.6641846 C72.8369175,95.2516662 73.6258093,95.0454102 74.5170898,95.0454102 C75.8359441,95.0454102 76.906368,95.4699665 77.7283936,96.3190918 C78.5504191,97.1682171 78.9945472,98.2943452 79.060791,99.6975098 L79.0698242,100.212402 C79.0698242,101.175949 78.8846454,102.037106 78.5142822,102.795898 C78.143919,103.554691 77.6139764,104.141844 76.9244385,104.557373 C76.2349005,104.972902 75.4384811,105.180664 74.5351562,105.180664 C73.1560803,105.180664 72.0525351,104.721481 71.2244873,103.803101 C70.3964395,102.88472 69.9824219,101.660734 69.9824219,100.131104 L69.9824219,100.022705 Z M72.1774902,100.212402 C72.1774902,101.218104 72.3852518,102.00549 72.8007812,102.574585 C73.2163107,103.14368 73.7944299,103.428223 74.5351562,103.428223 C75.2758826,103.428223 75.8524963,103.139163 76.2650146,102.561035 C76.677533,101.982907 76.8837891,101.136806 76.8837891,100.022705 C76.8837891,99.0350699 76.6715109,98.2522002 76.2469482,97.6740723 C75.8223856,97.0959444 75.2457719,96.8068848 74.5170898,96.8068848 C73.8004521,96.8068848 73.231366,97.0914278 72.8098145,97.6605225 C72.3882629,98.2296171 72.1774902,99.0802352 72.1774902,100.212402 Z M86.043457,97.2314453 C85.7543931,97.183268 85.4563004,97.1591797 85.1491699,97.1591797 C84.1434683,97.1591797 83.4659848,97.5445925 83.1166992,98.3154297 L83.1166992,105 L80.9216309,105 L80.9216309,95.2260742 L83.017334,95.2260742 L83.0715332,96.3190918 C83.6014838,95.4699665 84.3361769,95.0454102 85.2756348,95.0454102 C85.5887874,95.0454102 85.8477366,95.0875647 86.0524902,95.171875 L86.043457,97.2314453 Z M86.8474121,100.040771 C86.8474121,98.5352301 87.1966925,97.3262985 87.8952637,96.4139404 C88.5938349,95.5015824 89.5302676,95.0454102 90.7045898,95.0454102 C91.7404023,95.0454102 92.5774708,95.4067347 93.2158203,96.1293945 L93.2158203,91.125 L95.4108887,91.125 L95.4108887,105 L93.423584,105 L93.3151855,103.988281 C92.6587695,104.783207 91.7825576,105.180664 90.6865234,105.180664 C89.542312,105.180664 88.6164179,104.719975 87.9088135,103.798584 C87.201209,102.877193 86.8474121,101.624601 86.8474121,100.040771 Z M89.0424805,100.230469 C89.0424805,101.224126 89.2336814,101.999468 89.6160889,102.556519 C89.9984964,103.113569 90.5419887,103.39209 91.246582,103.39209 C92.1438847,103.39209 92.8002909,102.991622 93.2158203,102.190674 L93.2158203,98.017334 C92.8123352,97.2344525 92.1619511,96.8430176 91.2646484,96.8430176 C90.5540329,96.8430176 90.0060241,97.1245496 89.6206055,97.6876221 C89.2351869,98.2506945 89.0424805,99.0983016 89.0424805,100.230469 Z M104.371826,95.2260742 L104.435059,96.2468262 C105.121585,95.4458782 106.061029,95.0454102 107.253418,95.0454102 C108.560228,95.0454102 109.454506,95.5452424 109.936279,96.5449219 C110.646895,95.5452424 111.646559,95.0454102 112.935303,95.0454102 C114.01327,95.0454102 114.815712,95.3435029 115.342651,95.9396973 C115.869591,96.5358917 116.139079,97.4151146 116.151123,98.5773926 L116.151123,105 L113.956055,105 L113.956055,98.640625 C113.956055,98.020342 113.820558,97.5656753 113.549561,97.2766113 C113.278563,96.9875474 112.829918,96.8430176 112.203613,96.8430176 C111.703774,96.8430176 111.295778,96.9770088 110.979614,97.2449951 C110.663451,97.5129815 110.442139,97.8637674 110.315674,98.2973633 L110.324707,105 L108.129639,105 L108.129639,98.5683594 C108.099528,97.4181258 107.512376,96.8430176 106.368164,96.8430176 C105.488928,96.8430176 104.865643,97.2013311 104.498291,97.9179688 L104.498291,105 L102.303223,105 L102.303223,95.2260742 L104.371826,95.2260742 Z M124.244873,105 C124.148518,104.813313 124.064209,104.509198 123.991943,104.087646 C123.293372,104.816329 122.438237,105.180664 121.426514,105.180664 C120.444901,105.180664 119.643965,104.900638 119.023682,104.340576 C118.403399,103.780515 118.093262,103.087976 118.093262,102.262939 C118.093262,101.221105 118.48018,100.421674 119.254028,99.864624 C120.027877,99.3075737 121.134433,99.0290527 122.57373,99.0290527 L123.919678,99.0290527 L123.919678,98.3876953 C123.919678,97.8818334 123.778159,97.4768489 123.495117,97.1727295 C123.212075,96.8686101 122.781497,96.7165527 122.203369,96.7165527 C121.703529,96.7165527 121.294028,96.8415108 120.974854,97.0914307 C120.655679,97.3413505 120.496094,97.659015 120.496094,98.0444336 L118.301025,98.0444336 C118.301025,97.5084609 118.478677,97.0071231 118.833984,96.5404053 C119.189292,96.0736874 119.672564,95.7078464 120.283813,95.4428711 C120.895063,95.1778958 121.577063,95.0454102 122.329834,95.0454102 C123.474045,95.0454102 124.38639,95.3329642 125.066895,95.9080811 C125.747399,96.4831979 126.09668,97.2916615 126.114746,98.3334961 L126.114746,102.741699 C126.114746,103.620935 126.238199,104.322507 126.485107,104.846436 L126.485107,105 L124.244873,105 Z M121.833008,103.419189 C122.266604,103.419189 122.674599,103.313803 123.057007,103.103027 C123.439414,102.892252 123.726968,102.609214 123.919678,102.253906 L123.919678,100.411133 L122.736328,100.411133 C121.923336,100.411133 121.312095,100.552652 120.902588,100.835693 C120.493081,101.118735 120.28833,101.519203 120.28833,102.037109 C120.28833,102.458661 120.428343,102.794392 120.708374,103.044312 C120.988405,103.294231 121.363279,103.419189 121.833008,103.419189 Z M130.450684,95.2260742 L130.513916,96.3552246 C131.236576,95.4820106 132.185053,95.0454102 133.359375,95.0454102 C135.394867,95.0454102 136.430664,96.2106817 136.466797,98.5412598 L136.466797,105 L134.271729,105 L134.271729,98.6677246 C134.271729,98.0474416 134.137737,97.5882583 133.869751,97.2901611 C133.601765,96.9920639 133.163659,96.8430176 132.55542,96.8430176 C131.670162,96.8430176 131.010744,97.2434856 130.577148,98.0444336 L130.577148,105 L128.38208,105 L128.38208,95.2260742 L130.450684,95.2260742 Z M144.54248,105 C144.446126,104.813313 144.361817,104.509198 144.289551,104.087646 C143.59098,104.816329 142.735845,105.180664 141.724121,105.180664 C140.742508,105.180664 139.941572,104.900638 139.321289,104.340576 C138.701006,103.780515 138.390869,103.087976 138.390869,102.262939 C138.390869,101.221105 138.777787,100.421674 139.551636,99.864624 C140.325484,99.3075737 141.43204,99.0290527 142.871338,99.0290527 L144.217285,99.0290527 L144.217285,98.3876953 C144.217285,97.8818334 144.075766,97.4768489 143.792725,97.1727295 C143.509683,96.8686101 143.079104,96.7165527 142.500977,96.7165527 C142.001137,96.7165527 141.591636,96.8415108 141.272461,97.0914307 C140.953286,97.3413505 140.793701,97.659015 140.793701,98.0444336 L138.598633,98.0444336 C138.598633,97.5084609 138.776284,97.0071231 139.131592,96.5404053 C139.4869,96.0736874 139.970171,95.7078464 140.581421,95.4428711 C141.192671,95.1778958 141.874671,95.0454102 142.627441,95.0454102 C143.771653,95.0454102 144.683997,95.3329642 145.364502,95.9080811 C146.045007,96.4831979 146.394287,97.2916615 146.412354,98.3334961 L146.412354,102.741699 C146.412354,103.620935 146.535806,104.322507 146.782715,104.846436 L146.782715,105 L144.54248,105 Z M142.130615,103.419189 C142.564211,103.419189 142.972207,103.313803 143.354614,103.103027 C143.737022,102.892252 144.024576,102.609214 144.217285,102.253906 L144.217285,100.411133 L143.033936,100.411133 C142.220943,100.411133 141.609703,100.552652 141.200195,100.835693 C140.790688,101.118735 140.585938,101.519203 140.585938,102.037109 C140.585938,102.458661 140.725951,102.794392 141.005981,103.044312 C141.286012,103.294231 141.660886,103.419189 142.130615,103.419189 Z M148.327393,100.040771 C148.327393,98.5231858 148.684201,97.3112431 149.397827,96.4049072 C150.111454,95.4985713 151.058425,95.0454102 152.23877,95.0454102 C153.35287,95.0454102 154.229082,95.433834 154.867432,96.2106934 L154.966797,95.2260742 L156.945068,95.2260742 L156.945068,104.701904 C156.945068,105.984626 156.546106,106.996334 155.748169,107.737061 C154.950232,108.477787 153.873786,108.848145 152.518799,108.848145 C151.802161,108.848145 151.102095,108.699098 150.418579,108.401001 C149.735063,108.102904 149.215659,107.712974 148.860352,107.231201 L149.89917,105.912354 C150.573652,106.713302 151.404699,107.11377 152.392334,107.11377 C153.121016,107.11377 153.696124,106.916547 154.117676,106.522095 C154.539227,106.127643 154.75,105.548018 154.75,104.783203 L154.75,104.123779 C154.117673,104.828373 153.274582,105.180664 152.220703,105.180664 C151.076492,105.180664 150.141565,104.725997 149.415894,103.81665 C148.690223,102.907303 148.327393,101.64869 148.327393,100.040771 Z M150.513428,100.230469 C150.513428,101.212082 150.713662,101.984413 151.114136,102.547485 C151.51461,103.110558 152.070146,103.39209 152.780762,103.39209 C153.66602,103.39209 154.322426,103.012699 154.75,102.253906 L154.75,97.9541016 C154.334471,97.2133752 153.684086,96.8430176 152.798828,96.8430176 C152.076168,96.8430176 151.51461,97.1290661 151.114136,97.7011719 C150.713662,98.2732776 150.513428,99.1163681 150.513428,100.230469 Z M163.503174,105.180664 C162.112054,105.180664 160.98442,104.742558 160.120239,103.866333 C159.256059,102.990108 158.823975,101.823331 158.823975,100.365967 L158.823975,100.094971 C158.823975,99.1193799 159.012164,98.2476845 159.38855,97.4798584 C159.764935,96.7120323 160.293372,96.1143413 160.973877,95.6867676 C161.654382,95.2591938 162.413163,95.0454102 163.250244,95.0454102 C164.581143,95.0454102 165.609412,95.4699665 166.335083,96.3190918 C167.060754,97.1682171 167.423584,98.3696211 167.423584,99.9233398 L167.423584,100.808594 L161.037109,100.808594 C161.103353,101.615564 161.372841,102.253904 161.845581,102.723633 C162.318321,103.193362 162.913001,103.428223 163.629639,103.428223 C164.63534,103.428223 165.454343,103.021733 166.08667,102.20874 L167.27002,103.337891 C166.878579,103.922041 166.356164,104.375202 165.702759,104.697388 C165.049354,105.019574 164.316166,105.180664 163.503174,105.180664 Z M163.241211,96.8068848 C162.638994,96.8068848 162.152712,97.0176574 161.782349,97.439209 C161.411985,97.8607606 161.175619,98.4479129 161.073242,99.2006836 L165.255615,99.2006836 L165.255615,99.0380859 C165.207438,98.3033817 165.01172,97.7478453 164.668457,97.37146 C164.325194,96.9950746 163.84945,96.8068848 163.241211,96.8068848 Z M174.243652,97.2314453 C173.954588,97.183268 173.656496,97.1591797 173.349365,97.1591797 C172.343664,97.1591797 171.66618,97.5445925 171.316895,98.3154297 L171.316895,105 L169.121826,105 L169.121826,95.2260742 L171.217529,95.2260742 L171.271729,96.3190918 C171.801679,95.4699665 172.536372,95.0454102 173.47583,95.0454102 C173.788983,95.0454102 174.047932,95.0875647 174.252686,95.171875 L174.243652,97.2314453 Z" id="simplepasswordmanager" fill="#FFFFFF" fill-rule="nonzero"></path>
        <path d="M23.0151367,11.859375 L23.0151367,14.2260742 L24.8398438,14.2260742 L24.8398438,15.5178223 L23.0151367,15.5178223 L23.0151367,21.5791016 C23.0151367,21.9705423 23.0964347,22.2641185 23.2590332,22.4598389 C23.4216317,22.6555592 23.6986471,22.753418 24.0900879,22.753418 C24.2827972,22.753418 24.5477685,22.7172855 24.8850098,22.6450195 L24.8850098,24 C24.4453917,24.1204433 24.0178243,24.1806641 23.6022949,24.1806641 C22.8555464,24.1806641 22.2924824,23.9548362 21.9130859,23.5031738 C21.5336895,23.0515114 21.3439941,22.4101604 21.3439941,21.5791016 L21.3439941,15.5178223 L19.5644531,15.5178223 L19.5644531,14.2260742 L21.3439941,14.2260742 L21.3439941,11.859375 L23.0151367,11.859375 Z M28.4621582,15.4094238 C29.2028846,14.5000768 30.1664166,14.0454102 31.3527832,14.0454102 C33.418386,14.0454102 34.460205,15.2106817 34.4782715,17.5412598 L34.4782715,24 L32.8071289,24 L32.8071289,17.5322266 C32.8011067,16.8276332 32.6400162,16.3067237 32.3238525,15.9694824 C32.0076888,15.6322412 31.5153842,15.463623 30.8469238,15.463623 C30.3049289,15.463623 29.829185,15.6081529 29.4196777,15.8972168 C29.0101705,16.1862807 28.6910005,16.5656715 28.4621582,17.0354004 L28.4621582,24 L26.7910156,24 L26.7910156,10.125 L28.4621582,10.125 L28.4621582,15.4094238 Z M41.036377,24.1806641 C39.7115005,24.1806641 38.6335491,23.7455691 37.8024902,22.8753662 C36.9714314,22.0051633 36.5559082,20.8413973 36.5559082,19.3840332 L36.5559082,19.0769043 C36.5559082,18.1073356 36.741087,17.2416623 37.1114502,16.4798584 C37.4818134,15.7180545 37.9997118,15.121869 38.6651611,14.6912842 C39.3306104,14.2606993 40.0517539,14.0454102 40.8286133,14.0454102 C42.0992902,14.0454102 43.0869105,14.4639444 43.7915039,15.3010254 C44.4960973,16.1381064 44.8483887,17.3364994 44.8483887,18.8962402 L44.8483887,19.5917969 L38.2270508,19.5917969 C38.2511394,20.5553434 38.5326715,21.3336966 39.0716553,21.9268799 C39.6106391,22.5200632 40.2956501,22.8166504 41.126709,22.8166504 C41.7168812,22.8166504 42.2167134,22.6962089 42.6262207,22.4553223 C43.035728,22.2144356 43.3940414,21.8952657 43.7011719,21.4978027 L44.7219238,22.2927246 C43.9029093,23.5513572 42.674406,24.1806641 41.036377,24.1806641 Z M40.8286133,15.418457 C40.1541307,15.418457 39.5880557,15.6638566 39.1303711,16.1546631 C38.6726865,16.6454696 38.389649,17.3334917 38.28125,18.21875 L43.1772461,18.21875 L43.1772461,18.0922852 C43.1290688,17.2431598 42.9002299,16.5852481 42.4907227,16.1185303 C42.0812154,15.6518124 41.5271845,15.418457 40.8286133,15.418457 Z" id="the" fill="#FFFFFF" fill-rule="nonzero"></path>
        <path d="M183.280273,101.364258 L180.335449,100.55127 L180.922607,98.8439941 L183.804199,100.027344 L183.578369,96.8476562 L185.511475,96.8476562 L185.276611,100.090576 L188.076904,98.9343262 L188.664062,100.659668 L185.683105,101.472656 L187.661377,103.866455 L186.098633,104.932373 L184.445557,102.276611 L182.783447,104.842041 L181.220703,103.821289 L183.280273,101.364258 Z M191.879883,101.364258 L188.935059,100.55127 L189.522217,98.8439941 L192.403809,100.027344 L192.177979,96.8476562 L194.111084,96.8476562 L193.876221,100.090576 L196.676514,98.9343262 L197.263672,100.659668 L194.282715,101.472656 L196.260986,103.866455 L194.698242,104.932373 L193.045166,102.276611 L191.383057,104.842041 L189.820312,103.821289 L191.879883,101.364258 Z M200.479492,101.364258 L197.534668,100.55127 L198.121826,98.8439941 L201.003418,100.027344 L200.777588,96.8476562 L202.710693,96.8476562 L202.47583,100.090576 L205.276123,98.9343262 L205.863281,100.659668 L202.882324,101.472656 L204.860596,103.866455 L203.297852,104.932373 L201.644775,102.276611 L199.982666,104.842041 L198.419922,103.821289 L200.479492,101.364258 Z" id="***" fill="#FFFFFF" fill-rule="nonzero"></path>
    </g>
</svg>