<?xml version="1.0" encoding="UTF-8"?>
<svg width="230px" height="105px" viewBox="0 0 230 105" version="1.1" xmlns="http://www.w3.org/2000/svg" xmlns:xlink="http://www.w3.org/1999/xlink">
    <!-- Generator: Sketch 54.1 (76490) - https://sketchapp.com -->
    <title>logo copy</title>
    <desc>Created with Sketch.</desc>
    <g id="logo-copy" stroke="none" stroke-width="1" fill="none" fill-rule="evenodd">
        <g id="Group" transform="translate(17.000000, 10.000000)" fill="#FFFFFF" fill-rule="nonzero">
            <path d="M18.5605469,43.0351562 C18.5605469,41.9348903 18.1077519,41.0970081 17.2021484,40.5214844 C16.296545,39.9459607 14.7942813,39.4381532 12.6953125,38.9980469 C10.5963437,38.5579405 8.84440807,37.9993523 7.43945312,37.3222656 C4.35870855,35.8326748 2.81835938,33.6744933 2.81835938,30.8476562 C2.81835938,28.4778527 3.8170473,26.4974038 5.81445312,24.90625 C7.81185895,23.3150962 10.3508961,22.5195312 13.4316406,22.5195312 C16.7155112,22.5195312 19.368805,23.3320231 21.3916016,24.9570312 C23.4143981,26.5820394 24.4257812,28.6894402 24.4257812,31.2792969 L18.2558594,31.2792969 C18.2558594,30.0943951 17.8157596,29.1084024 16.9355469,28.3212891 C16.0553341,27.5341758 14.8873771,27.140625 13.4316406,27.140625 C12.0774672,27.140625 10.972986,27.4537729 10.1181641,28.0800781 C9.26334208,28.7063833 8.8359375,29.5442656 8.8359375,30.59375 C8.8359375,31.5416714 9.23371998,32.2779922 10.0292969,32.8027344 C10.8248738,33.3274766 12.4329306,33.8564426 14.8535156,34.3896484 C17.2741006,34.9228542 19.1741467,35.5576135 20.5537109,36.2939453 C21.9332751,37.0302771 22.9573534,37.9147084 23.6259766,38.9472656 C24.2945997,39.9798229 24.6289062,41.2324145 24.6289062,42.7050781 C24.6289062,45.1764446 23.6048279,47.1780522 21.5566406,48.7099609 C19.5084533,50.2418696 16.8255374,51.0078125 13.5078125,51.0078125 C11.2564992,51.0078125 9.25065984,50.6015666 7.49023438,49.7890625 C5.72980891,48.9765584 4.35872887,47.8593821 3.37695312,46.4375 C2.39517738,45.0156179 1.90429688,43.4837322 1.90429688,41.8417969 L7.89648438,41.8417969 C7.98112021,43.2975333 8.53124492,44.4189414 9.546875,45.2060547 C10.5625051,45.993168 11.9081947,46.3867188 13.5839844,46.3867188 C15.2089925,46.3867188 16.4446572,46.0778026 17.2910156,45.4599609 C18.137374,44.8421193 18.5605469,44.0338592 18.5605469,43.0351562 Z M36.5625,50.5 L30.3925781,50.5 L30.3925781,23.0273438 L36.5625,23.0273438 L36.5625,50.5 Z M30.0117188,15.8925781 C30.0117188,14.9446567 30.3121715,14.1575552 30.9130859,13.53125 C31.5140004,12.9049448 32.3730413,12.5917969 33.4902344,12.5917969 C34.6074275,12.5917969 35.4707001,12.9049448 36.0800781,13.53125 C36.6894562,14.1575552 36.9941406,14.9446567 36.9941406,15.8925781 C36.9941406,16.8235724 36.6894562,17.5979787 36.0800781,18.2158203 C35.4707001,18.8336619 34.6074275,19.1425781 33.4902344,19.1425781 C32.3730413,19.1425781 31.5140004,18.8336619 30.9130859,18.2158203 C30.3121715,17.5979787 30.0117188,16.8235724 30.0117188,15.8925781 Z M49.0800781,23.0273438 L49.2578125,25.8964844 C51.1875096,23.645171 53.8281082,22.5195312 57.1796875,22.5195312 C60.8528829,22.5195312 63.3665297,23.9244651 64.7207031,26.734375 C66.7181089,23.9244651 69.5279767,22.5195312 73.1503906,22.5195312 C76.1803537,22.5195312 78.435865,23.3574135 79.9169922,25.0332031 C81.3981194,26.7089928 82.1555988,29.1803222 82.1894531,32.4472656 L82.1894531,50.5 L76.0195312,50.5 L76.0195312,32.625 C76.0195312,30.8815017 75.6386757,29.6035197 74.8769531,28.7910156 C74.1152306,27.9785116 72.8541755,27.5722656 71.09375,27.5722656 C69.6887951,27.5722656 68.5419966,27.9488895 67.6533203,28.7021484 C66.764644,29.4554074 66.1425799,30.4414002 65.7871094,31.6601562 L65.8125,50.5 L59.6425781,50.5 L59.6425781,32.421875 C59.5579423,29.1887859 57.9075682,27.5722656 54.6914062,27.5722656 C52.2200397,27.5722656 50.4681041,28.579417 49.4355469,30.59375 L49.4355469,50.5 L43.265625,50.5 L43.265625,23.0273438 L49.0800781,23.0273438 Z M112.582031,37.0429688 C112.582031,41.2916879 111.617197,44.6813025 109.6875,47.2119141 C107.757803,49.7425257 105.167985,51.0078125 101.917969,51.0078125 C98.9049329,51.0078125 96.4928476,50.017588 94.6816406,48.0371094 L94.6816406,61.0625 L88.5117188,61.0625 L88.5117188,23.0273438 L94.1992188,23.0273438 L94.453125,25.8203125 C96.264332,23.6197807 98.727198,22.5195312 101.841797,22.5195312 C105.193376,22.5195312 107.82128,23.7678912 109.725586,26.2646484 C111.629892,28.7614057 112.582031,32.2271914 112.582031,36.6621094 L112.582031,37.0429688 Z M106.4375,36.5097656 C106.4375,33.7675644 105.891607,31.592456 104.799805,29.984375 C103.708002,28.376294 102.146495,27.5722656 100.115234,27.5722656 C97.5930863,27.5722656 95.7819065,28.6132708 94.6816406,30.6953125 L94.6816406,42.8828125 C95.7988337,45.0156357 97.6269404,46.0820312 100.166016,46.0820312 C102.129567,46.0820312 103.665685,45.290698 104.774414,43.7080078 C105.883144,42.1253176 106.4375,39.7259275 106.4375,36.5097656 Z M124.363281,50.5 L118.193359,50.5 L118.193359,11.5 L124.363281,11.5 L124.363281,50.5 Z M143.177734,51.0078125 C139.267559,51.0078125 136.097994,49.7763795 133.668945,47.3134766 C131.239897,44.8505736 130.025391,41.570984 130.025391,37.4746094 L130.025391,36.7128906 C130.025391,33.9706894 130.554357,31.5205186 131.612305,29.3623047 C132.670253,27.2040908 134.155589,25.5240946 136.068359,24.3222656 C137.981129,23.1204367 140.113921,22.5195312 142.466797,22.5195312 C146.207701,22.5195312 149.097972,23.7128787 151.137695,26.0996094 C153.177419,28.4863401 154.197266,31.8632594 154.197266,36.2304688 L154.197266,38.71875 L136.246094,38.71875 C136.432293,40.9869905 137.189772,42.7812434 138.518555,44.1015625 C139.847337,45.4218816 141.51887,46.0820312 143.533203,46.0820312 C146.36004,46.0820312 148.6621,44.9394646 150.439453,42.6542969 L153.765625,45.828125 C152.665359,47.4700603 151.196949,48.7438106 149.360352,49.6494141 C147.523754,50.5550175 145.462902,51.0078125 143.177734,51.0078125 Z M142.441406,27.4707031 C140.748689,27.4707031 139.381841,28.0631451 138.34082,29.2480469 C137.299799,30.4329486 136.635418,32.0833228 136.347656,34.1992188 L148.103516,34.1992188 L148.103516,33.7421875 C147.968098,31.677073 147.417974,30.1155652 146.453125,29.0576172 C145.488276,27.9996692 144.15105,27.4707031 142.441406,27.4707031 Z" id="simple"></path>
            <path d="M163.602539,37.0966797 L159.543457,35.9760742 L160.352783,33.6228027 L164.324707,35.2539062 L164.013428,30.8710938 L166.677979,30.8710938 L166.354248,35.3410645 L170.214111,33.7473145 L171.023438,36.1254883 L166.914551,37.2460938 L169.641357,40.5456543 L167.487305,42.0148926 L165.20874,38.354248 L162.917725,41.8903809 L160.763672,40.4833984 L163.602539,37.0966797 Z M175.456055,37.0966797 L171.396973,35.9760742 L172.206299,33.6228027 L176.178223,35.2539062 L175.866943,30.8710938 L178.531494,30.8710938 L178.207764,35.3410645 L182.067627,33.7473145 L182.876953,36.1254883 L178.768066,37.2460938 L181.494873,40.5456543 L179.34082,42.0148926 L177.062256,38.354248 L174.77124,41.8903809 L172.617188,40.4833984 L175.456055,37.0966797 Z M187.30957,37.0966797 L183.250488,35.9760742 L184.059814,33.6228027 L188.031738,35.2539062 L187.720459,30.8710938 L190.38501,30.8710938 L190.061279,35.3410645 L193.921143,33.7473145 L194.730469,36.1254883 L190.621582,37.2460938 L193.348389,40.5456543 L191.194336,42.0148926 L188.915771,38.354248 L186.624756,41.8903809 L184.470703,40.4833984 L187.30957,37.0966797 Z" id="***"></path>
            <path d="M3.87524414,1.8503418 L3.87524414,4.22607422 L5.60058594,4.22607422 L5.60058594,5.85205078 L3.87524414,5.85205078 L3.87524414,11.3081055 C3.87524414,11.6814797 3.94901456,11.9509676 4.09655762,12.1165771 C4.24410067,12.2821867 4.50756646,12.3649902 4.88696289,12.3649902 C5.13989384,12.3649902 5.39583204,12.3348799 5.65478516,12.2746582 L5.65478516,13.9729004 C5.15494542,14.1114102 4.6731794,14.1806641 4.20947266,14.1806641 C2.52326631,14.1806641 1.68017578,13.2502534 1.68017578,11.3894043 L1.68017578,5.85205078 L0.072265625,5.85205078 L0.072265625,4.22607422 L1.68017578,4.22607422 L1.68017578,1.8503418 L3.87524414,1.8503418 Z M9.43969727,5.29199219 C10.156335,4.46093334 11.0626573,4.04541016 12.1586914,4.04541016 C14.2423607,4.04541016 15.2992349,5.23477001 15.3293457,7.61352539 L15.3293457,14 L13.1342773,14 L13.1342773,7.69482422 C13.1342773,7.02034168 12.988242,6.54309222 12.696167,6.26306152 C12.404092,5.98303083 11.9750191,5.84301758 11.4089355,5.84301758 C10.5296994,5.84301758 9.87329318,6.23445247 9.43969727,7.01733398 L9.43969727,14 L7.24462891,14 L7.24462891,0.125 L9.43969727,0.125 L9.43969727,5.29199219 Z M21.8513184,14.1806641 C20.4601981,14.1806641 19.3325645,13.7425581 18.4683838,12.866333 C17.604203,11.9901079 17.1721191,10.8233309 17.1721191,9.3659668 L17.1721191,9.0949707 C17.1721191,8.11937989 17.360309,7.2476845 17.7366943,6.4798584 C18.1130797,5.71203229 18.6415168,5.11434133 19.3220215,4.68676758 C20.0025262,4.25919383 20.7613077,4.04541016 21.5983887,4.04541016 C22.9292873,4.04541016 23.9575566,4.46996646 24.6832275,5.3190918 C25.4088985,6.16821714 25.7717285,7.36962114 25.7717285,8.92333984 L25.7717285,9.80859375 L19.3852539,9.80859375 C19.4514977,10.6155639 19.7209856,11.2539039 20.1937256,11.7236328 C20.6664656,12.1933617 21.2611455,12.4282227 21.9777832,12.4282227 C22.9834848,12.4282227 23.8024871,12.0217326 24.4348145,11.2087402 L25.6181641,12.3378906 C25.2267233,12.9220407 24.7043083,13.3752018 24.0509033,13.6973877 C23.3974984,14.0195736 22.6643107,14.1806641 21.8513184,14.1806641 Z M21.5893555,5.80688477 C20.9871389,5.80688477 20.5008563,6.0176574 20.1304932,6.43920898 C19.76013,6.86076057 19.5237635,7.4479129 19.4213867,8.20068359 L23.6037598,8.20068359 L23.6037598,8.03808594 C23.5555824,7.30338174 23.359865,6.74784531 23.0166016,6.37145996 C22.6733381,5.99507462 22.1975942,5.80688477 21.5893555,5.80688477 Z" id="the"></path>
            <path d="M12.0390625,77.0478516 C12.0390625,78.9270927 11.612309,80.4263453 10.7587891,81.5456543 C9.90526917,82.6649633 8.75977281,83.2246094 7.32226562,83.2246094 C5.98957667,83.2246094 4.92269281,82.7866255 4.12158203,81.9106445 L4.12158203,87.671875 L1.39257812,87.671875 L1.39257812,70.8486328 L3.90820312,70.8486328 L4.02050781,72.0839844 C4.82161859,71.1106722 5.91096316,70.6240234 7.28857422,70.6240234 C8.77100351,70.6240234 9.9333454,71.1761826 10.7756348,72.2805176 C11.6179241,73.3848525 12.0390625,74.9177962 12.0390625,76.8793945 L12.0390625,77.0478516 Z M9.32128906,76.8120117 C9.32128906,75.599115 9.0798364,74.6370478 8.59692383,73.9257812 C8.11401126,73.2145147 7.42334434,72.8588867 6.52490234,72.8588867 C5.40933687,72.8588867 4.60823811,73.3193313 4.12158203,74.2402344 L4.12158203,79.6308594 C4.61572513,80.5742235 5.42431079,81.0458984 6.54736328,81.0458984 C7.41585721,81.0458984 8.09529377,80.6958857 8.58569336,79.9958496 C9.07609295,79.2958136 9.32128906,78.2345449 9.32128906,76.8120117 Z M21.6074219,83 C21.4876296,82.7679025 21.3828129,82.3898138 21.2929688,81.8657227 C20.4244748,82.7716517 19.3613344,83.2246094 18.1035156,83.2246094 C16.8831319,83.2246094 15.8873736,82.8764683 15.1162109,82.1801758 C14.3450482,81.4838832 13.9594727,80.6228892 13.9594727,79.597168 C13.9594727,78.3019141 14.4405063,77.3080276 15.4025879,76.6154785 C16.3646695,75.9229295 17.7403882,75.5766602 19.5297852,75.5766602 L21.203125,75.5766602 L21.203125,74.7792969 C21.203125,74.1503875 21.0271827,73.6468932 20.675293,73.2687988 C20.3234032,72.8907045 19.7880895,72.7016602 19.0693359,72.7016602 C18.4479136,72.7016602 17.9388041,72.8570134 17.5419922,73.1677246 C17.1451803,73.4784358 16.9467773,73.87337 16.9467773,74.3525391 L14.2177734,74.3525391 C14.2177734,73.6861946 14.4386371,73.0629098 14.8803711,72.482666 C15.3221051,71.9024222 15.9229291,71.4475928 16.6828613,71.1181641 C17.4427935,70.7887353 18.2906854,70.6240234 19.2265625,70.6240234 C20.6490957,70.6240234 21.7833617,70.9815231 22.6293945,71.6965332 C23.4754274,72.4115433 23.9096679,73.4166602 23.9321289,74.7119141 L23.9321289,80.1923828 C23.9321289,81.2854872 24.0856104,82.1577116 24.3925781,82.809082 L24.3925781,83 L21.6074219,83 Z M18.6088867,81.034668 C19.1479519,81.034668 19.6551897,80.9036471 20.1306152,80.6416016 C20.6060408,80.379556 20.9635405,80.0276715 21.203125,79.5859375 L21.203125,77.2949219 L19.7319336,77.2949219 C18.7211864,77.2949219 17.9612656,77.4708641 17.4521484,77.8227539 C16.9430313,78.1746437 16.6884766,78.6725228 16.6884766,79.3164062 C16.6884766,79.8404974 16.8625471,80.2578923 17.2106934,80.5686035 C17.5588396,80.8793147 18.0248994,81.034668 18.6088867,81.034668 Z M33.6015625,79.6982422 C33.6015625,79.2115861 33.4012878,78.8409843 33.0007324,78.5864258 C32.600177,78.3318672 31.9357143,78.1072601 31.0073242,77.9125977 C30.0789342,77.7179352 29.3040396,77.4708674 28.6826172,77.1713867 C27.3199802,76.5125293 26.6386719,75.557949 26.6386719,74.3076172 C26.6386719,73.2594349 27.0803992,72.3834671 27.9638672,71.6796875 C28.8473351,70.9759079 29.9703708,70.6240234 31.3330078,70.6240234 C32.785489,70.6240234 33.9590613,70.9833948 34.8537598,71.7021484 C35.7484582,72.420902 36.1958008,73.3530216 36.1958008,74.4985352 L33.4667969,74.4985352 C33.4667969,73.974444 33.2721374,73.5383318 32.8828125,73.1901855 C32.4934876,72.8420393 31.9768912,72.6679688 31.3330078,72.6679688 C30.7340465,72.6679688 30.245526,72.8064765 29.8674316,73.0834961 C29.4893373,73.3605157 29.300293,73.7311175 29.300293,74.1953125 C29.300293,74.6145854 29.4762352,74.9402658 29.828125,75.1723633 C30.1800148,75.4044608 30.8912707,75.6384266 31.9619141,75.8742676 C33.0325574,76.1101086 33.8729624,76.3908675 34.4831543,76.7165527 C35.0933461,77.042238 35.5463039,77.4334287 35.842041,77.8901367 C36.1377782,78.3468447 36.2856445,78.9008756 36.2856445,79.5522461 C36.2856445,80.6453505 35.8326868,81.530677 34.9267578,82.208252 C34.0208288,82.885827 32.8341545,83.2246094 31.3666992,83.2246094 C30.370926,83.2246094 29.4837279,83.0449237 28.7050781,82.6855469 C27.9264284,82.3261701 27.3199892,81.8320344 26.8857422,81.203125 C26.4514952,80.5742156 26.234375,79.8966508 26.234375,79.1704102 L28.8847656,79.1704102 C28.9222007,79.8142936 29.1655251,80.310301 29.6147461,80.6584473 C30.0639671,81.0065935 30.659176,81.1806641 31.4003906,81.1806641 C32.1191442,81.1806641 32.6656882,81.0440281 33.0400391,80.770752 C33.4143899,80.4974758 33.6015625,80.1399762 33.6015625,79.6982422 Z M45.472168,79.6982422 C45.472168,79.2115861 45.2718933,78.8409843 44.8713379,78.5864258 C44.4707825,78.3318672 43.8063197,78.1072601 42.8779297,77.9125977 C41.9495396,77.7179352 41.174645,77.4708674 40.5532227,77.1713867 C39.1905856,76.5125293 38.5092773,75.557949 38.5092773,74.3076172 C38.5092773,73.2594349 38.9510047,72.3834671 39.8344727,71.6796875 C40.7179406,70.9759079 41.8409763,70.6240234 43.2036133,70.6240234 C44.6560945,70.6240234 45.8296668,70.9833948 46.7243652,71.7021484 C47.6190637,72.420902 48.0664062,73.3530216 48.0664062,74.4985352 L45.3374023,74.4985352 C45.3374023,73.974444 45.1427428,73.5383318 44.753418,73.1901855 C44.3640931,72.8420393 43.8474967,72.6679688 43.2036133,72.6679688 C42.604652,72.6679688 42.1161314,72.8064765 41.7380371,73.0834961 C41.3599428,73.3605157 41.1708984,73.7311175 41.1708984,74.1953125 C41.1708984,74.6145854 41.3468407,74.9402658 41.6987305,75.1723633 C42.0506202,75.4044608 42.7618762,75.6384266 43.8325195,75.8742676 C44.9031629,76.1101086 45.7435679,76.3908675 46.3537598,76.7165527 C46.9639516,77.042238 47.4169093,77.4334287 47.7126465,77.8901367 C48.0083836,78.3468447 48.15625,78.9008756 48.15625,79.5522461 C48.15625,80.6453505 47.7032923,81.530677 46.7973633,82.208252 C45.8914343,82.885827 44.7047599,83.2246094 43.2373047,83.2246094 C42.2415315,83.2246094 41.3543333,83.0449237 40.5756836,82.6855469 C39.7970339,82.3261701 39.1905946,81.8320344 38.7563477,81.203125 C38.3221007,80.5742156 38.1049805,79.8966508 38.1049805,79.1704102 L40.7553711,79.1704102 C40.7928062,79.8142936 41.0361306,80.310301 41.4853516,80.6584473 C41.9345726,81.0065935 42.5297815,81.1806641 43.2709961,81.1806641 C43.9897497,81.1806641 44.5362937,81.0440281 44.9106445,80.770752 C45.2849954,80.4974758 45.472168,80.1399762 45.472168,79.6982422 Z M61.2060547,79.237793 L63.1376953,70.8486328 L65.7993164,70.8486328 L62.4863281,83 L60.2402344,83 L57.6347656,74.6557617 L55.0742188,83 L52.828125,83 L49.5039062,70.8486328 L52.1655273,70.8486328 L54.1308594,79.1479492 L56.6240234,70.8486328 L58.6791992,70.8486328 L61.2060547,79.237793 Z M67.1132812,76.8120117 C67.1132812,75.6215761 67.3491187,74.549077 67.8208008,73.5944824 C68.2924828,72.6398878 68.9550739,71.9061712 69.8085938,71.3933105 C70.6621136,70.8804499 71.6428981,70.6240234 72.7509766,70.6240234 C74.3906332,70.6240234 75.7214304,71.1518502 76.7434082,72.2075195 C77.765386,73.2631889 78.3175452,74.66324 78.3999023,76.4077148 L78.4111328,77.0478516 C78.4111328,78.2457742 78.1809105,79.3164015 77.720459,80.2597656 C77.2600075,81.2031297 76.6011599,81.9331029 75.7438965,82.449707 C74.8866331,82.9663112 73.89649,83.2246094 72.7734375,83.2246094 C71.0589107,83.2246094 69.6869355,82.6537329 68.6574707,81.5119629 C67.6280059,80.3701929 67.1132812,78.8484796 67.1132812,76.9467773 L67.1132812,76.8120117 Z M69.8422852,77.0478516 C69.8422852,78.2981833 70.1005834,79.2770961 70.6171875,79.9846191 C71.1337916,80.6921422 71.8525345,81.0458984 72.7734375,81.0458984 C73.6943405,81.0458984 74.4112116,80.686527 74.9240723,79.9677734 C75.4369329,79.2490198 75.6933594,78.1971098 75.6933594,76.8120117 C75.6933594,75.584141 75.429446,74.6108434 74.9016113,73.8920898 C74.3737767,73.1733363 73.6569056,72.8139648 72.7509766,72.8139648 C71.8600216,72.8139648 71.1525091,73.1677211 70.628418,73.8752441 C70.1043268,74.5827672 69.8422852,75.6402924 69.8422852,77.0478516 Z M87.0810547,73.3417969 C86.7216779,73.2819007 86.3510761,73.2519531 85.9692383,73.2519531 C84.7189065,73.2519531 83.8766298,73.731115 83.4423828,74.6894531 L83.4423828,83 L80.7133789,83 L80.7133789,70.8486328 L83.3188477,70.8486328 L83.3862305,72.2075195 C84.0450879,71.1518502 84.9584903,70.6240234 86.1264648,70.6240234 C86.5157897,70.6240234 86.8377266,70.6764318 87.0922852,70.78125 L87.0810547,73.3417969 Z M88.0805664,76.8344727 C88.0805664,74.9627185 88.5148069,73.4597225 89.3833008,72.3254395 C90.2517947,71.1911564 91.4160083,70.6240234 92.8759766,70.6240234 C94.1637434,70.6240234 95.2044231,71.0732377 95.9980469,71.9716797 L95.9980469,65.75 L98.7270508,65.75 L98.7270508,83 L96.2563477,83 L96.121582,81.7421875 C95.3054972,82.7304737 94.2161526,83.2246094 92.8535156,83.2246094 C91.4309825,83.2246094 90.2798709,82.6518612 89.4001465,81.5063477 C88.520422,80.3608341 88.0805664,78.803558 88.0805664,76.8344727 Z M90.8095703,77.0703125 C90.8095703,78.3056702 91.0472795,79.2696092 91.5227051,79.9621582 C91.9981306,80.6547072 92.6738237,81.0009766 93.5498047,81.0009766 C94.6653702,81.0009766 95.4814427,80.5030974 95.9980469,79.5073242 L95.9980469,74.3188477 C95.4964168,73.3455355 94.6878311,72.8588867 93.5722656,72.8588867 C92.6887977,72.8588867 92.0074894,73.2088995 91.5283203,73.9089355 C91.0491512,74.6089716 90.8095703,75.6627534 90.8095703,77.0703125 Z M109.867676,70.8486328 L109.946289,72.1176758 C110.799809,71.1219026 111.967766,70.6240234 113.450195,70.6240234 C115.074878,70.6240234 116.186683,71.2454365 116.785645,72.4882812 C117.669112,71.2454365 118.911939,70.6240234 120.51416,70.6240234 C121.854336,70.6240234 122.851966,70.9946252 123.50708,71.7358398 C124.162194,72.4770545 124.497233,73.5701425 124.512207,75.0151367 L124.512207,83 L121.783203,83 L121.783203,75.09375 C121.783203,74.3225873 121.614748,73.757326 121.277832,73.3979492 C120.940916,73.0385724 120.383142,72.8588867 119.604492,72.8588867 C118.98307,72.8588867 118.475832,73.0254703 118.082764,73.3586426 C117.689695,73.6918148 117.414552,74.127927 117.257324,74.6669922 L117.268555,83 L114.539551,83 L114.539551,75.0039062 C114.502116,73.5738861 113.772143,72.8588867 112.349609,72.8588867 C111.256505,72.8588867 110.48161,73.3043575 110.024902,74.1953125 L110.024902,83 L107.295898,83 L107.295898,70.8486328 L109.867676,70.8486328 Z M134.574707,83 C134.454915,82.7679025 134.350098,82.3898138 134.260254,81.8657227 C133.39176,82.7716517 132.32862,83.2246094 131.070801,83.2246094 C129.850417,83.2246094 128.854659,82.8764683 128.083496,82.1801758 C127.312333,81.4838832 126.926758,80.6228892 126.926758,79.597168 C126.926758,78.3019141 127.407791,77.3080276 128.369873,76.6154785 C129.331955,75.9229295 130.707673,75.5766602 132.49707,75.5766602 L134.17041,75.5766602 L134.17041,74.7792969 C134.17041,74.1503875 133.994468,73.6468932 133.642578,73.2687988 C133.290688,72.8907045 132.755375,72.7016602 132.036621,72.7016602 C131.415199,72.7016602 130.906089,72.8570134 130.509277,73.1677246 C130.112465,73.4784358 129.914062,73.87337 129.914062,74.3525391 L127.185059,74.3525391 C127.185059,73.6861946 127.405922,73.0629098 127.847656,72.482666 C128.28939,71.9024222 128.890214,71.4475928 129.650146,71.1181641 C130.410079,70.7887353 131.257971,70.6240234 132.193848,70.6240234 C133.616381,70.6240234 134.750647,70.9815231 135.59668,71.6965332 C136.442713,72.4115433 136.876953,73.4166602 136.899414,74.7119141 L136.899414,80.1923828 C136.899414,81.2854872 137.052896,82.1577116 137.359863,82.809082 L137.359863,83 L134.574707,83 Z M131.576172,81.034668 C132.115237,81.034668 132.622475,80.9036471 133.0979,80.6416016 C133.573326,80.379556 133.930826,80.0276715 134.17041,79.5859375 L134.17041,77.2949219 L132.699219,77.2949219 C131.688472,77.2949219 130.928551,77.4708641 130.419434,77.8227539 C129.910316,78.1746437 129.655762,78.6725228 129.655762,79.3164062 C129.655762,79.8404974 129.829832,80.2578923 130.177979,80.5686035 C130.526125,80.8793147 130.992185,81.034668 131.576172,81.034668 Z M142.290039,70.8486328 L142.368652,72.2524414 C143.267094,71.166824 144.446282,70.6240234 145.90625,70.6240234 C148.436862,70.6240234 149.724609,72.0727394 149.769531,74.9702148 L149.769531,83 L147.040527,83 L147.040527,75.1274414 C147.040527,74.3562787 146.873944,73.7854022 146.540771,73.4147949 C146.207599,73.0441876 145.662927,72.8588867 144.906738,72.8588867 C143.806147,72.8588867 142.986331,73.3567659 142.447266,74.3525391 L142.447266,83 L139.718262,83 L139.718262,70.8486328 L142.290039,70.8486328 Z M159.80957,83 C159.689778,82.7679025 159.584961,82.3898138 159.495117,81.8657227 C158.626623,82.7716517 157.563483,83.2246094 156.305664,83.2246094 C155.08528,83.2246094 154.089522,82.8764683 153.318359,82.1801758 C152.547197,81.4838832 152.161621,80.6228892 152.161621,79.597168 C152.161621,78.3019141 152.642655,77.3080276 153.604736,76.6154785 C154.566818,75.9229295 155.942537,75.5766602 157.731934,75.5766602 L159.405273,75.5766602 L159.405273,74.7792969 C159.405273,74.1503875 159.229331,73.6468932 158.877441,73.2687988 C158.525552,72.8907045 157.990238,72.7016602 157.271484,72.7016602 C156.650062,72.7016602 156.140953,72.8570134 155.744141,73.1677246 C155.347329,73.4784358 155.148926,73.87337 155.148926,74.3525391 L152.419922,74.3525391 C152.419922,73.6861946 152.640786,73.0629098 153.08252,72.482666 C153.524254,71.9024222 154.125078,71.4475928 154.88501,71.1181641 C155.644942,70.7887353 156.492834,70.6240234 157.428711,70.6240234 C158.851244,70.6240234 159.98551,70.9815231 160.831543,71.6965332 C161.677576,72.4115433 162.111816,73.4166602 162.134277,74.7119141 L162.134277,80.1923828 C162.134277,81.2854872 162.287759,82.1577116 162.594727,82.809082 L162.594727,83 L159.80957,83 Z M156.811035,81.034668 C157.3501,81.034668 157.857338,80.9036471 158.332764,80.6416016 C158.808189,80.379556 159.165689,80.0276715 159.405273,79.5859375 L159.405273,77.2949219 L157.934082,77.2949219 C156.923335,77.2949219 156.163414,77.4708641 155.654297,77.8227539 C155.14518,78.1746437 154.890625,78.6725228 154.890625,79.3164062 C154.890625,79.8404974 155.064696,80.2578923 155.412842,80.5686035 C155.760988,80.8793147 156.227048,81.034668 156.811035,81.034668 Z M164.515137,76.8344727 C164.515137,74.9477445 164.958736,73.441005 165.845947,72.314209 C166.733159,71.187413 167.910474,70.6240234 169.37793,70.6240234 C170.763028,70.6240234 171.852372,71.1069288 172.645996,72.0727539 L172.769531,70.8486328 L175.229004,70.8486328 L175.229004,82.6293945 C175.229004,84.2241291 174.732996,85.481929 173.740967,86.402832 C172.748937,87.3237351 171.410653,87.7841797 169.726074,87.7841797 C168.835119,87.7841797 167.964767,87.5988788 167.11499,87.2282715 C166.265214,86.8576642 165.619468,86.3728871 165.177734,85.7739258 L166.469238,84.1342773 C167.307784,85.1300506 168.340977,85.6279297 169.568848,85.6279297 C170.474777,85.6279297 171.189776,85.3827336 171.713867,84.892334 C172.237958,84.4019344 172.5,83.6813199 172.5,82.7304688 L172.5,81.9106445 C171.713863,82.7866255 170.665697,83.2246094 169.355469,83.2246094 C167.932936,83.2246094 166.770594,82.6593481 165.868408,81.5288086 C164.966223,80.3982691 164.515137,78.8335061 164.515137,76.8344727 Z M167.23291,77.0703125 C167.23291,78.2906962 167.48185,79.2508917 167.979736,79.9509277 C168.477623,80.6509638 169.16829,81.0009766 170.051758,81.0009766 C171.152349,81.0009766 171.968422,80.5293016 172.5,79.5859375 L172.5,74.2402344 C171.983396,73.3193313 171.17481,72.8588867 170.074219,72.8588867 C169.175777,72.8588867 168.477623,73.2145147 167.979736,73.9257812 C167.48185,74.6370478 167.23291,75.6852144 167.23291,77.0703125 Z M183.382324,83.2246094 C181.652823,83.2246094 180.250901,82.6799371 179.176514,81.5905762 C178.102127,80.5012153 177.564941,79.0506275 177.564941,77.2387695 L177.564941,76.9018555 C177.564941,75.6889588 177.798907,74.6052294 178.266846,73.6506348 C178.734784,72.6960401 179.39176,71.9529649 180.237793,71.4213867 C181.083826,70.8898085 182.027176,70.6240234 183.067871,70.6240234 C184.722502,70.6240234 186.000891,71.1518502 186.903076,72.2075195 C187.805262,73.2631889 188.256348,74.7568263 188.256348,76.6884766 L188.256348,77.7890625 L180.316406,77.7890625 C180.398763,78.7923227 180.733802,79.5859346 181.321533,80.1699219 C181.909264,80.7539092 182.648596,81.0458984 183.539551,81.0458984 C184.789883,81.0458984 185.808102,80.5405324 186.594238,79.5297852 L188.06543,80.9335938 C187.578774,81.6598344 186.929285,82.2232239 186.116943,82.6237793 C185.304602,83.0243347 184.393071,83.2246094 183.382324,83.2246094 Z M183.056641,72.8139648 C182.307939,72.8139648 181.703371,73.0760065 181.24292,73.6000977 C180.782468,74.1241888 180.488607,74.854162 180.361328,75.7900391 L185.561035,75.7900391 L185.561035,75.5878906 C185.501139,74.6744746 185.257815,73.9838077 184.831055,73.5158691 C184.404295,73.0479306 183.812829,72.8139648 183.056641,72.8139648 Z M196.735352,73.3417969 C196.375975,73.2819007 196.005373,73.2519531 195.623535,73.2519531 C194.373203,73.2519531 193.530927,73.731115 193.09668,74.6894531 L193.09668,83 L190.367676,83 L190.367676,70.8486328 L192.973145,70.8486328 L193.040527,72.2075195 C193.699385,71.1518502 194.612787,70.6240234 195.780762,70.6240234 C196.170087,70.6240234 196.492023,70.6764318 196.746582,70.78125 L196.735352,73.3417969 Z" id="passwordmanager"></path>
        </g>
    </g>
</svg>