<?xml version="1.0" encoding="UTF-8"?>
<svg width="239px" height="127px" viewBox="0 0 239 127" version="1.1" xmlns="http://www.w3.org/2000/svg" xmlns:xlink="http://www.w3.org/1999/xlink">
    <!-- Generator: Sketch 54.1 (76490) - https://sketchapp.com -->
    <title>Artboard Copy</title>
    <desc>Created with Sketch.</desc>
    <g id="Artboard-Copy" stroke="none" stroke-width="1" fill="none" fill-rule="evenodd">
        <path d="M34.5605469,64.5351562 C34.5605469,63.4348903 34.1077519,62.5970081 33.2021484,62.0214844 C32.296545,61.4459607 30.7942813,60.9381532 28.6953125,60.4980469 C26.5963437,60.0579405 24.8444081,59.4993523 23.4394531,58.8222656 C20.3587086,57.3326748 18.8183594,55.1744933 18.8183594,52.3476562 C18.8183594,49.9778527 19.8170473,47.9974038 21.8144531,46.40625 C23.8118589,44.8150962 26.3508961,44.0195312 29.4316406,44.0195312 C32.7155112,44.0195312 35.368805,44.8320231 37.3916016,46.4570312 C39.4143981,48.0820394 40.4257812,50.1894402 40.4257812,52.7792969 L34.2558594,52.7792969 C34.2558594,51.5943951 33.8157596,50.6084024 32.9355469,49.8212891 C32.0553341,49.0341758 30.8873771,48.640625 29.4316406,48.640625 C28.0774672,48.640625 26.972986,48.9537729 26.1181641,49.5800781 C25.2633421,50.2063833 24.8359375,51.0442656 24.8359375,52.09375 C24.8359375,53.0416714 25.23372,53.7779922 26.0292969,54.3027344 C26.8248738,54.8274766 28.4329306,55.3564426 30.8535156,55.8896484 C33.2741006,56.4228542 35.1741467,57.0576135 36.5537109,57.7939453 C37.9332751,58.5302771 38.9573534,59.4147084 39.6259766,60.4472656 C40.2945997,61.4798229 40.6289062,62.7324145 40.6289062,64.2050781 C40.6289062,66.6764446 39.6048279,68.6780522 37.5566406,70.2099609 C35.5084533,71.7418696 32.8255374,72.5078125 29.5078125,72.5078125 C27.2564992,72.5078125 25.2506598,72.1015666 23.4902344,71.2890625 C21.7298089,70.4765584 20.3587289,69.3593821 19.3769531,67.9375 C18.3951774,66.5156179 17.9042969,64.9837322 17.9042969,63.3417969 L23.8964844,63.3417969 C23.9811202,64.7975333 24.5312449,65.9189414 25.546875,66.7060547 C26.5625051,67.493168 27.9081947,67.8867188 29.5839844,67.8867188 C31.2089925,67.8867188 32.4446572,67.5778026 33.2910156,66.9599609 C34.137374,66.3421193 34.5605469,65.5338592 34.5605469,64.5351562 Z M52.5625,72 L46.3925781,72 L46.3925781,44.5273438 L52.5625,44.5273438 L52.5625,72 Z M46.0117188,37.3925781 C46.0117188,36.4446567 46.3121715,35.6575552 46.9130859,35.03125 C47.5140004,34.4049448 48.3730413,34.0917969 49.4902344,34.0917969 C50.6074275,34.0917969 51.4707001,34.4049448 52.0800781,35.03125 C52.6894562,35.6575552 52.9941406,36.4446567 52.9941406,37.3925781 C52.9941406,38.3235724 52.6894562,39.0979787 52.0800781,39.7158203 C51.4707001,40.3336619 50.6074275,40.6425781 49.4902344,40.6425781 C48.3730413,40.6425781 47.5140004,40.3336619 46.9130859,39.7158203 C46.3121715,39.0979787 46.0117188,38.3235724 46.0117188,37.3925781 Z M65.0800781,44.5273438 L65.2578125,47.3964844 C67.1875096,45.145171 69.8281082,44.0195312 73.1796875,44.0195312 C76.8528829,44.0195312 79.3665297,45.4244651 80.7207031,48.234375 C82.7181089,45.4244651 85.5279767,44.0195312 89.1503906,44.0195312 C92.1803537,44.0195312 94.435865,44.8574135 95.9169922,46.5332031 C97.3981194,48.2089928 98.1555988,50.6803222 98.1894531,53.9472656 L98.1894531,72 L92.0195312,72 L92.0195312,54.125 C92.0195312,52.3815017 91.6386757,51.1035197 90.8769531,50.2910156 C90.1152306,49.4785116 88.8541755,49.0722656 87.09375,49.0722656 C85.6887951,49.0722656 84.5419966,49.4488895 83.6533203,50.2021484 C82.764644,50.9554074 82.1425799,51.9414002 81.7871094,53.1601562 L81.8125,72 L75.6425781,72 L75.6425781,53.921875 C75.5579423,50.6887859 73.9075682,49.0722656 70.6914062,49.0722656 C68.2200397,49.0722656 66.4681041,50.079417 65.4355469,52.09375 L65.4355469,72 L59.265625,72 L59.265625,44.5273438 L65.0800781,44.5273438 Z M128.582031,58.5429688 C128.582031,62.7916879 127.617197,66.1813025 125.6875,68.7119141 C123.757803,71.2425257 121.167985,72.5078125 117.917969,72.5078125 C114.904933,72.5078125 112.492848,71.517588 110.681641,69.5371094 L110.681641,82.5625 L104.511719,82.5625 L104.511719,44.5273438 L110.199219,44.5273438 L110.453125,47.3203125 C112.264332,45.1197807 114.727198,44.0195312 117.841797,44.0195312 C121.193376,44.0195312 123.82128,45.2678912 125.725586,47.7646484 C127.629892,50.2614057 128.582031,53.7271914 128.582031,58.1621094 L128.582031,58.5429688 Z M122.4375,58.0097656 C122.4375,55.2675644 121.891607,53.092456 120.799805,51.484375 C119.708002,49.876294 118.146495,49.0722656 116.115234,49.0722656 C113.593086,49.0722656 111.781907,50.1132708 110.681641,52.1953125 L110.681641,64.3828125 C111.798834,66.5156357 113.62694,67.5820312 116.166016,67.5820312 C118.129567,67.5820312 119.665685,66.790698 120.774414,65.2080078 C121.883144,63.6253176 122.4375,61.2259275 122.4375,58.0097656 Z M140.363281,72 L134.193359,72 L134.193359,33 L140.363281,33 L140.363281,72 Z M159.177734,72.5078125 C155.267559,72.5078125 152.097994,71.2763795 149.668945,68.8134766 C147.239897,66.3505736 146.025391,63.070984 146.025391,58.9746094 L146.025391,58.2128906 C146.025391,55.4706894 146.554357,53.0205186 147.612305,50.8623047 C148.670253,48.7040908 150.155589,47.0240946 152.068359,45.8222656 C153.981129,44.6204367 156.113921,44.0195312 158.466797,44.0195312 C162.207701,44.0195312 165.097972,45.2128787 167.137695,47.5996094 C169.177419,49.9863401 170.197266,53.3632594 170.197266,57.7304688 L170.197266,60.21875 L152.246094,60.21875 C152.432293,62.4869905 153.189772,64.2812434 154.518555,65.6015625 C155.847337,66.9218816 157.51887,67.5820312 159.533203,67.5820312 C162.36004,67.5820312 164.6621,66.4394646 166.439453,64.1542969 L169.765625,67.328125 C168.665359,68.9700603 167.196949,70.2438106 165.360352,71.1494141 C163.523754,72.0550175 161.462902,72.5078125 159.177734,72.5078125 Z M158.441406,48.9707031 C156.748689,48.9707031 155.381841,49.5631451 154.34082,50.7480469 C153.299799,51.9329486 152.635418,53.5833228 152.347656,55.6992188 L164.103516,55.6992188 L164.103516,55.2421875 C163.968098,53.177073 163.417974,51.6155652 162.453125,50.5576172 C161.488276,49.4996692 160.15105,48.9707031 158.441406,48.9707031 Z M190.382812,64.5351562 C190.382812,63.4348903 189.930018,62.5970081 189.024414,62.0214844 C188.118811,61.4459607 186.616547,60.9381532 184.517578,60.4980469 C182.418609,60.0579405 180.666674,59.4993523 179.261719,58.8222656 C176.180974,57.3326748 174.640625,55.1744933 174.640625,52.3476562 C174.640625,49.9778527 175.639313,47.9974038 177.636719,46.40625 C179.634125,44.8150962 182.173162,44.0195312 185.253906,44.0195312 C188.537777,44.0195312 191.191071,44.8320231 193.213867,46.4570312 C195.236664,48.0820394 196.248047,50.1894402 196.248047,52.7792969 L190.078125,52.7792969 C190.078125,51.5943951 189.638025,50.6084024 188.757812,49.8212891 C187.8776,49.0341758 186.709643,48.640625 185.253906,48.640625 C183.899733,48.640625 182.795252,48.9537729 181.94043,49.5800781 C181.085608,50.2063833 180.658203,51.0442656 180.658203,52.09375 C180.658203,53.0416714 181.055986,53.7779922 181.851562,54.3027344 C182.647139,54.8274766 184.255196,55.3564426 186.675781,55.8896484 C189.096366,56.4228542 190.996412,57.0576135 192.375977,57.7939453 C193.755541,58.5302771 194.779619,59.4147084 195.448242,60.4472656 C196.116865,61.4798229 196.451172,62.7324145 196.451172,64.2050781 C196.451172,66.6764446 195.427094,68.6780522 193.378906,70.2099609 C191.330719,71.7418696 188.647803,72.5078125 185.330078,72.5078125 C183.078765,72.5078125 181.072925,72.1015666 179.3125,71.2890625 C177.552075,70.4765584 176.180994,69.3593821 175.199219,67.9375 C174.217443,66.5156179 173.726562,64.9837322 173.726562,63.3417969 L179.71875,63.3417969 C179.803386,64.7975333 180.353511,65.9189414 181.369141,66.7060547 C182.384771,67.493168 183.73046,67.8867188 185.40625,67.8867188 C187.031258,67.8867188 188.266923,67.5778026 189.113281,66.9599609 C189.95964,66.3421193 190.382812,65.5338592 190.382812,64.5351562 Z M209.552734,37.8496094 L209.552734,44.5273438 L214.402344,44.5273438 L214.402344,49.0976562 L209.552734,49.0976562 L209.552734,64.4335938 C209.552734,65.4830782 209.760089,66.2405576 210.174805,66.7060547 C210.58952,67.1715518 211.330073,67.4042969 212.396484,67.4042969 C213.107425,67.4042969 213.826819,67.3196623 214.554688,67.1503906 L214.554688,71.9238281 C213.149733,72.313153 211.795579,72.5078125 210.492188,72.5078125 C205.75258,72.5078125 203.382812,69.8926043 203.382812,64.6621094 L203.382812,49.0976562 L198.863281,49.0976562 L198.863281,44.5273438 L203.382812,44.5273438 L203.382812,37.8496094 L209.552734,37.8496094 Z M25.9327148,98.0147949 C25.9327148,99.566593 25.5777542,100.816808 24.8678223,101.765479 C24.1578903,102.714149 23.1966695,103.188477 21.9841309,103.188477 C20.7464619,103.188477 19.7726761,102.795821 19.0627441,102.010498 L19.0627441,106.920312 L17.3193359,106.920312 L17.3193359,92.803418 L18.9119629,92.803418 L18.9967773,93.9342773 C19.7067093,93.0547157 20.6930601,92.6149414 21.9558594,92.6149414 C23.1809632,92.6149414 24.1500371,93.0767044 24.8631104,94.0002441 C25.5761836,94.9237839 25.9327148,96.208553 25.9327148,97.8545898 L25.9327148,98.0147949 Z M24.1893066,97.8168945 C24.1893066,96.6671818 23.9442896,95.7593621 23.454248,95.0934082 C22.9642065,94.4274544 22.2919802,94.0944824 21.4375488,94.0944824 C20.3820748,94.0944824 19.5904812,94.5625279 19.0627441,95.4986328 L19.0627441,100.370752 C19.5841986,101.300574 20.3820747,101.765479 21.4563965,101.765479 C22.2919801,101.765479 22.9563533,101.434077 23.4495361,100.771265 C23.9427189,100.108452 24.1893066,99.1236719 24.1893066,97.8168945 Z M34.4424316,103 C34.3419103,102.798957 34.2602379,102.440855 34.1974121,101.925684 C33.3869588,102.76755 32.4194555,103.188477 31.294873,103.188477 C30.2896597,103.188477 29.465083,102.904194 28.8211182,102.33562 C28.1771534,101.767046 27.8551758,101.046131 27.8551758,100.172852 C27.8551758,99.111095 28.2588257,98.2865182 29.0661377,97.6990967 C29.8734497,97.1116751 31.0090096,96.8179688 32.4728516,96.8179688 L34.1691406,96.8179688 L34.1691406,96.0169434 C34.1691406,95.4075328 33.9869484,94.9222105 33.6225586,94.5609619 C33.2581688,94.1997134 32.7210159,94.0190918 32.011084,94.0190918 C31.3891082,94.0190918 30.8676616,94.176154 30.4467285,94.4902832 C30.0257954,94.8044124 29.815332,95.184503 29.815332,95.6305664 L28.0625,95.6305664 C28.0625,95.1216771 28.2431216,94.6300724 28.6043701,94.1557373 C28.9656187,93.6814023 29.4556528,93.3060235 30.0744873,93.0295898 C30.6933218,92.7531562 31.3734012,92.6149414 32.1147461,92.6149414 C33.2895892,92.6149414 34.2099739,92.9086478 34.8759277,93.4960693 C35.5418816,94.0834909 35.8874185,94.8923614 35.9125488,95.9227051 L35.9125488,100.615771 C35.9125488,101.551876 36.0319161,102.296351 36.2706543,102.849219 L36.2706543,103 L34.4424316,103 Z M31.5493164,101.67124 C32.0959012,101.67124 32.6142065,101.529884 33.104248,101.247168 C33.5942896,100.964452 33.9492502,100.596926 34.1691406,100.14458 L34.1691406,98.0524902 L32.8026855,98.0524902 C30.6666072,98.0524902 29.598584,98.6775979 29.598584,99.927832 C29.598584,100.474417 29.7807762,100.901626 30.145166,101.209473 C30.5095559,101.517319 30.9776013,101.67124 31.5493164,101.67124 Z M44.5824707,100.295361 C44.5824707,99.8241676 44.4049904,99.4582126 44.0500244,99.1974854 C43.6950584,98.9367581 43.0762333,98.7121591 42.1935303,98.5236816 C41.3108273,98.3352041 40.6103297,98.1090345 40.0920166,97.845166 C39.5737035,97.5812975 39.1904716,97.267173 38.9423096,96.9027832 C38.6941475,96.5383934 38.5700684,96.1049016 38.5700684,95.6022949 C38.5700684,94.7667113 38.9234584,94.0599313 39.630249,93.4819336 C40.3370397,92.9039359 41.2401475,92.6149414 42.3395996,92.6149414 C43.495595,92.6149414 44.4332565,92.9133596 45.1526123,93.5102051 C45.8719681,94.1070505 46.2316406,94.870373 46.2316406,95.8001953 L44.4788086,95.8001953 C44.4788086,95.322719 44.2761983,94.9112159 43.8709717,94.5656738 C43.465745,94.2201317 42.9552928,94.0473633 42.3395996,94.0473633 C41.7050587,94.0473633 41.208742,94.185578 40.8506348,94.4620117 C40.4925275,94.7384454 40.3134766,95.0996885 40.3134766,95.545752 C40.3134766,95.966685 40.4799625,96.2839508 40.8129395,96.4975586 C41.1459164,96.7111664 41.7474647,96.9153473 42.6176025,97.1101074 C43.4877404,97.3048675 44.1929498,97.5373196 44.733252,97.8074707 C45.2735541,98.0776218 45.6740628,98.4027406 45.93479,98.7828369 C46.1955173,99.1629332 46.3258789,99.6262668 46.3258789,100.172852 C46.3258789,101.083826 45.9614945,101.814166 45.2327148,102.363892 C44.5039352,102.913618 43.5584205,103.188477 42.3961426,103.188477 C41.5794067,103.188477 40.8569205,103.043979 40.2286621,102.75498 C39.6004038,102.465982 39.108799,102.062332 38.753833,101.544019 C38.398867,101.025705 38.2213867,100.464993 38.2213867,99.8618652 L39.9647949,99.8618652 C39.9962078,100.446145 40.2302306,100.909479 40.6668701,101.25188 C41.1035097,101.594281 41.6799281,101.765479 42.3961426,101.765479 C43.0558138,101.765479 43.5851136,101.631976 43.9840576,101.364966 C44.3830017,101.097956 44.5824707,100.741425 44.5824707,100.295361 Z M54.5340332,100.295361 C54.5340332,99.8241676 54.3565529,99.4582126 54.0015869,99.1974854 C53.6466209,98.9367581 53.0277958,98.7121591 52.1450928,98.5236816 C51.2623898,98.3352041 50.5618922,98.1090345 50.0435791,97.845166 C49.525266,97.5812975 49.1420341,97.267173 48.8938721,96.9027832 C48.64571,96.5383934 48.5216309,96.1049016 48.5216309,95.6022949 C48.5216309,94.7667113 48.8750209,94.0599313 49.5818115,93.4819336 C50.2886022,92.9039359 51.19171,92.6149414 52.2911621,92.6149414 C53.4471575,92.6149414 54.384819,92.9133596 55.1041748,93.5102051 C55.8235306,94.1070505 56.1832031,94.870373 56.1832031,95.8001953 L54.4303711,95.8001953 C54.4303711,95.322719 54.2277608,94.9112159 53.8225342,94.5656738 C53.4173075,94.2201317 52.9068553,94.0473633 52.2911621,94.0473633 C51.6566212,94.0473633 51.1603045,94.185578 50.8021973,94.4620117 C50.44409,94.7384454 50.2650391,95.0996885 50.2650391,95.545752 C50.2650391,95.966685 50.431525,96.2839508 50.764502,96.4975586 C51.0974789,96.7111664 51.6990272,96.9153473 52.569165,97.1101074 C53.4393029,97.3048675 54.1445123,97.5373196 54.6848145,97.8074707 C55.2251166,98.0776218 55.6256253,98.4027406 55.8863525,98.7828369 C56.1470798,99.1629332 56.2774414,99.6262668 56.2774414,100.172852 C56.2774414,101.083826 55.913057,101.814166 55.1842773,102.363892 C54.4554977,102.913618 53.509983,103.188477 52.3477051,103.188477 C51.5309692,103.188477 50.808483,103.043979 50.1802246,102.75498 C49.5519663,102.465982 49.0603615,102.062332 48.7053955,101.544019 C48.3504295,101.025705 48.1729492,100.464993 48.1729492,99.8618652 L49.9163574,99.8618652 C49.9477703,100.446145 50.1817931,100.909479 50.6184326,101.25188 C51.0550722,101.594281 51.6314906,101.765479 52.3477051,101.765479 C53.0073763,101.765479 53.5366761,101.631976 53.9356201,101.364966 C54.3345642,101.097956 54.5340332,100.741425 54.5340332,100.295361 Z M67.5766113,100.596924 L69.5367676,92.803418 L71.2801758,92.803418 L68.3116699,103 L66.8980957,103 L64.4196289,95.2724609 L62.0071289,103 L60.5935547,103 L57.6344727,92.803418 L59.368457,92.803418 L61.3757324,100.436719 L63.7505371,92.803418 L65.1546875,92.803418 L67.5766113,100.596924 Z M72.5900879,97.8074707 C72.5900879,96.8085399 72.7864157,95.910144 73.1790771,95.1122559 C73.5717386,94.3143678 74.1183152,93.6986838 74.8188232,93.2651855 C75.5193313,92.8316873 76.3187781,92.6149414 77.2171875,92.6149414 C78.6056385,92.6149414 79.7286334,93.0955518 80.5862061,94.0567871 C81.4437787,95.0180224 81.8725586,96.2965089 81.8725586,97.8922852 L81.8725586,98.0147949 C81.8725586,99.0074431 81.6825133,99.897986 81.302417,100.68645 C80.9223207,101.474914 80.3788854,102.089028 79.6720947,102.528809 C78.9653041,102.968589 78.1532923,103.188477 77.2360352,103.188477 C75.8538668,103.188477 74.7340131,102.707866 73.8764404,101.746631 C73.0188678,100.785396 72.5900879,99.5131915 72.5900879,97.9299805 L72.5900879,97.8074707 Z M74.3429199,98.0147949 C74.3429199,99.14566 74.6052138,100.05348 75.1298096,100.738281 C75.6544053,101.423083 76.3564735,101.765479 77.2360352,101.765479 C78.1218794,101.765479 78.8255182,101.418371 79.3469727,100.724146 C79.8684271,100.02992 80.1291504,99.0577048 80.1291504,97.8074707 C80.1291504,96.6891708 79.8637152,95.7829218 79.3328369,95.0886963 C78.8019586,94.3944708 78.0967492,94.0473633 77.2171875,94.0473633 C76.3564736,94.0473633 75.6622585,94.3897589 75.1345215,95.0745605 C74.6067845,95.7593621 74.3429199,96.7394305 74.3429199,98.0147949 Z M88.9875488,94.3677734 C88.7236803,94.3237954 88.4378271,94.3018066 88.1299805,94.3018066 C86.9865503,94.3018066 86.2106628,94.7886996 85.8022949,95.7625 L85.8022949,103 L84.0588867,103 L84.0588867,92.803418 L85.7551758,92.803418 L85.7834473,93.9813965 C86.3551624,93.0704219 87.1656035,92.6149414 88.2147949,92.6149414 C88.5540544,92.6149414 88.8116365,92.6589188 88.9875488,92.746875 L88.9875488,94.3677734 Z M89.9864746,97.8168945 C89.9864746,96.2525312 90.3571415,94.9944628 91.0984863,94.0426514 C91.8398312,93.09084 92.8104758,92.6149414 94.0104492,92.6149414 C95.2041401,92.6149414 96.1496547,93.0233032 96.8470215,93.8400391 L96.8470215,88.525 L98.5904297,88.525 L98.5904297,103 L96.9883789,103 L96.9035645,101.906836 C96.2061977,102.761267 95.2355531,103.188477 93.9916016,103.188477 C92.8104759,103.188477 91.8476844,102.704725 91.1031982,101.737207 C90.3587121,100.769689 89.9864746,99.5069088 89.9864746,97.9488281 L89.9864746,97.8168945 Z M91.7298828,98.0147949 C91.7298828,99.1707903 91.9686174,100.075469 92.4460937,100.728857 C92.9235701,101.382246 93.5832315,101.708936 94.4250977,101.708936 C95.5308324,101.708936 96.3381322,101.212619 96.8470215,100.219971 L96.8470215,95.5363281 C96.3255671,94.5750929 95.5245497,94.0944824 94.4439453,94.0944824 C93.589514,94.0944824 92.9235701,94.4243131 92.4460937,95.0839844 C91.9686174,95.7436556 91.7298828,96.7205827 91.7298828,98.0147949 Z M107.712695,92.803418 L107.759814,93.9342773 C108.507442,93.0547157 109.515781,92.6149414 110.784863,92.6149414 C112.21101,92.6149414 113.181654,93.161518 113.696826,94.2546875 C114.036086,93.764646 114.477431,93.3688492 115.020874,93.0672852 C115.564317,92.7657211 116.206702,92.6149414 116.948047,92.6149414 C119.184647,92.6149414 120.321777,93.7991906 120.359473,96.1677246 L120.359473,103 L118.616064,103 L118.616064,96.2713867 C118.616064,95.542607 118.449578,94.9976011 118.116602,94.6363525 C117.783625,94.275104 117.224483,94.0944824 116.43916,94.0944824 C115.792054,94.0944824 115.254901,94.287669 114.827686,94.6740479 C114.40047,95.0604267 114.152312,95.5803027 114.083203,96.2336914 L114.083203,103 L112.330371,103 L112.330371,96.3185059 C112.330371,94.8358162 111.604744,94.0944824 110.153467,94.0944824 C109.010037,94.0944824 108.227867,94.5813753 107.806934,95.5551758 L107.806934,103 L106.063525,103 L106.063525,92.803418 L107.712695,92.803418 Z M129.283838,103 C129.183317,102.798957 129.101644,102.440855 129.038818,101.925684 C128.228365,102.76755 127.260862,103.188477 126.136279,103.188477 C125.131066,103.188477 124.306489,102.904194 123.662524,102.33562 C123.01856,101.767046 122.696582,101.046131 122.696582,100.172852 C122.696582,99.111095 123.100232,98.2865182 123.907544,97.6990967 C124.714856,97.1116751 125.850416,96.8179688 127.314258,96.8179688 L129.010547,96.8179688 L129.010547,96.0169434 C129.010547,95.4075328 128.828355,94.9222105 128.463965,94.5609619 C128.099575,94.1997134 127.562422,94.0190918 126.85249,94.0190918 C126.230514,94.0190918 125.709068,94.176154 125.288135,94.4902832 C124.867202,94.8044124 124.656738,95.184503 124.656738,95.6305664 L122.903906,95.6305664 C122.903906,95.1216771 123.084528,94.6300724 123.445776,94.1557373 C123.807025,93.6814023 124.297059,93.3060235 124.915894,93.0295898 C125.534728,92.7531562 126.214807,92.6149414 126.956152,92.6149414 C128.130995,92.6149414 129.05138,92.9086478 129.717334,93.4960693 C130.383288,94.0834909 130.728825,94.8923614 130.753955,95.9227051 L130.753955,100.615771 C130.753955,101.551876 130.873322,102.296351 131.112061,102.849219 L131.112061,103 L129.283838,103 Z M126.390723,101.67124 C126.937307,101.67124 127.455613,101.529884 127.945654,101.247168 C128.435696,100.964452 128.790656,100.596926 129.010547,100.14458 L129.010547,98.0524902 L127.644092,98.0524902 C125.508013,98.0524902 124.43999,98.6775979 124.43999,99.927832 C124.43999,100.474417 124.622182,100.901626 124.986572,101.209473 C125.350962,101.517319 125.819008,101.67124 126.390723,101.67124 Z M135.136035,92.803418 L135.192578,94.0850586 C135.971618,93.1049756 136.989382,92.6149414 138.245898,92.6149414 C140.400825,92.6149414 141.487695,93.8306031 141.506543,96.2619629 L141.506543,103 L139.763135,103 L139.763135,96.2525391 C139.756852,95.5174768 139.588796,94.9740415 139.25896,94.6222168 C138.929124,94.2703921 138.415531,94.0944824 137.718164,94.0944824 C137.152732,94.0944824 136.656415,94.2452622 136.229199,94.5468262 C135.801984,94.8483902 135.469012,95.244187 135.230273,95.7342285 L135.230273,103 L133.486865,103 L133.486865,92.803418 L135.136035,92.803418 Z M150.430908,103 C150.330387,102.798957 150.248715,102.440855 150.185889,101.925684 C149.375435,102.76755 148.407932,103.188477 147.28335,103.188477 C146.278136,103.188477 145.45356,102.904194 144.809595,102.33562 C144.16563,101.767046 143.843652,101.046131 143.843652,100.172852 C143.843652,99.111095 144.247302,98.2865182 145.054614,97.6990967 C145.861926,97.1116751 146.997486,96.8179688 148.461328,96.8179688 L150.157617,96.8179688 L150.157617,96.0169434 C150.157617,95.4075328 149.975425,94.9222105 149.611035,94.5609619 C149.246645,94.1997134 148.709492,94.0190918 147.999561,94.0190918 C147.377585,94.0190918 146.856138,94.176154 146.435205,94.4902832 C146.014272,94.8044124 145.803809,95.184503 145.803809,95.6305664 L144.050977,95.6305664 C144.050977,95.1216771 144.231598,94.6300724 144.592847,94.1557373 C144.954095,93.6814023 145.444129,93.3060235 146.062964,93.0295898 C146.681798,92.7531562 147.361878,92.6149414 148.103223,92.6149414 C149.278066,92.6149414 150.19845,92.9086478 150.864404,93.4960693 C151.530358,94.0834909 151.875895,94.8923614 151.901025,95.9227051 L151.901025,100.615771 C151.901025,101.551876 152.020393,102.296351 152.259131,102.849219 L152.259131,103 L150.430908,103 Z M147.537793,101.67124 C148.084378,101.67124 148.602683,101.529884 149.092725,101.247168 C149.582766,100.964452 149.937727,100.596926 150.157617,100.14458 L150.157617,98.0524902 L148.791162,98.0524902 C146.655084,98.0524902 145.587061,98.6775979 145.587061,99.927832 C145.587061,100.474417 145.769253,100.901626 146.133643,101.209473 C146.498032,101.517319 146.966078,101.67124 147.537793,101.67124 Z M154.219287,97.8168945 C154.219287,96.2274009 154.586813,94.9630499 155.321875,94.0238037 C156.056937,93.0845575 157.030723,92.6149414 158.243262,92.6149414 C159.487213,92.6149414 160.457858,93.0547157 161.155225,93.9342773 L161.240039,92.803418 L162.832666,92.803418 L162.832666,102.75498 C162.832666,104.074323 162.441581,105.114075 161.659399,105.874268 C160.877218,106.63446 159.826471,107.014551 158.507129,107.014551 C157.772067,107.014551 157.052722,106.857489 156.349072,106.543359 C155.645423,106.22923 155.10827,105.79888 154.737598,105.252295 L155.642285,104.20625 C156.389913,105.12979 157.304015,105.591553 158.384619,105.591553 C159.232768,105.591553 159.894,105.352818 160.368335,104.875342 C160.84267,104.397865 161.079834,103.725639 161.079834,102.858643 L161.079834,101.982227 C160.382467,102.786397 159.43067,103.188477 158.224414,103.188477 C157.030723,103.188477 156.06479,102.707866 155.326587,101.746631 C154.588383,100.785396 154.219287,99.4754966 154.219287,97.8168945 Z M155.972119,98.0147949 C155.972119,99.1645077 156.207712,100.067616 156.678906,100.724146 C157.1501,101.380675 157.809761,101.708936 158.65791,101.708936 C159.757362,101.708936 160.564662,101.209478 161.079834,100.210547 L161.079834,95.5551758 C160.545814,94.5813753 159.744797,94.0944824 158.676758,94.0944824 C157.828609,94.0944824 157.165806,94.4243131 156.68833,95.0839844 C156.210854,95.7436556 155.972119,96.7205827 155.972119,98.0147949 Z M169.693213,103.188477 C168.311045,103.188477 167.186479,102.734567 166.319482,101.826733 C165.452486,100.9189 165.018994,99.704809 165.018994,98.1844238 L165.018994,97.8640137 C165.018994,96.8525177 165.212181,95.9494099 165.59856,95.1546631 C165.984938,94.3599163 166.525233,93.7379498 167.219458,93.2887451 C167.913683,92.8395404 168.666012,92.6149414 169.476465,92.6149414 C170.80209,92.6149414 171.832418,93.0515744 172.56748,93.9248535 C173.302543,94.7981326 173.670068,96.048348 173.670068,97.6755371 L173.670068,98.4011719 L166.762402,98.4011719 C166.787533,99.4063852 167.081239,100.218397 167.64353,100.837231 C168.205821,101.456066 168.920455,101.765479 169.787451,101.765479 C170.403144,101.765479 170.924591,101.639829 171.351807,101.388525 C171.779022,101.137222 172.15283,100.80425 172.473242,100.3896 L173.538135,101.218896 C172.683703,102.531956 171.402076,103.188477 169.693213,103.188477 Z M169.476465,94.0473633 C168.772815,94.0473633 168.182262,94.3033747 167.704785,94.8154053 C167.227309,95.3274358 166.932032,96.0452102 166.818945,96.96875 L171.92666,96.96875 L171.92666,96.8368164 C171.876399,95.9509721 171.637665,95.2646102 171.210449,94.77771 C170.783234,94.2908097 170.205245,94.0473633 169.476465,94.0473633 Z M180.61543,94.3677734 C180.351561,94.3237954 180.065708,94.3018066 179.757861,94.3018066 C178.614431,94.3018066 177.838544,94.7886996 177.430176,95.7625 L177.430176,103 L175.686768,103 L175.686768,92.803418 L177.383057,92.803418 L177.411328,93.9813965 C177.983043,93.0704219 178.793484,92.6149414 179.842676,92.6149414 C180.181935,92.6149414 180.439517,92.6589188 180.61543,92.746875 L180.61543,94.3677734 Z" id="simplestpasswordmanager" fill="#FFFFFF" fill-rule="nonzero"></path>
        <path d="M21.1501465,25.171875 L21.1501465,27.2827148 L22.7775879,27.2827148 L22.7775879,28.4348145 L21.1501465,28.4348145 L21.1501465,33.8408203 C21.1501465,34.1899432 21.2226555,34.4517814 21.3676758,34.6263428 C21.512696,34.8009042 21.7597639,34.8881836 22.1088867,34.8881836 C22.2807626,34.8881836 22.5170883,34.8559574 22.8178711,34.7915039 L22.8178711,36 C22.4257793,36.1074224 22.0444354,36.1611328 21.6738281,36.1611328 C21.0078092,36.1611328 20.5056169,35.9597188 20.1672363,35.5568848 C19.8288557,35.1540507 19.659668,34.582035 19.659668,33.8408203 L19.659668,28.4348145 L18.0725098,28.4348145 L18.0725098,27.2827148 L19.659668,27.2827148 L19.659668,25.171875 L21.1501465,25.171875 Z M26.0083008,28.3381348 C26.6689486,27.5270956 27.528315,27.121582 28.5864258,27.121582 C30.4287201,27.121582 31.3579101,28.1608783 31.3740234,30.239502 L31.3740234,36 L29.8835449,36 L29.8835449,30.2314453 C29.8781738,29.6030242 29.7344985,29.1384292 29.4525146,28.8376465 C29.1705308,28.5368637 28.7314483,28.3864746 28.1352539,28.3864746 C27.6518531,28.3864746 27.2275409,28.5153796 26.8623047,28.7731934 C26.4970685,29.0310071 26.2124034,29.3693827 26.0083008,29.7883301 L26.0083008,36 L24.5178223,36 L24.5178223,23.625 L26.0083008,23.625 L26.0083008,28.3381348 Z M37.2231445,36.1611328 C36.041498,36.1611328 35.0800818,35.7730752 34.3388672,34.9969482 C33.5976525,34.2208213 33.2270508,33.1828678 33.2270508,31.8830566 L33.2270508,31.6091309 C33.2270508,30.7443804 33.3922103,29.9722934 33.7225342,29.2928467 C34.0528581,28.6133999 34.5147675,28.081667 35.1082764,27.6976318 C35.7017852,27.3135967 36.3449672,27.121582 37.0378418,27.121582 C38.1711482,27.121582 39.0519988,27.4948693 39.6804199,28.2414551 C40.308841,28.9880408 40.6230469,30.0568778 40.6230469,31.447998 L40.6230469,32.0683594 L34.7175293,32.0683594 C34.7390138,32.9277387 34.9901099,33.6219456 35.4708252,34.151001 C35.9515405,34.6800564 36.5624963,34.9445801 37.3037109,34.9445801 C37.8300808,34.9445801 38.2758771,34.8371593 38.6411133,34.6223145 C39.0063495,34.4074696 39.3259264,34.1228045 39.5998535,33.7683105 L40.5102539,34.4772949 C39.7797815,35.5998591 38.6840893,36.1611328 37.2231445,36.1611328 Z M37.0378418,28.3461914 C36.4362763,28.3461914 35.9313985,28.5650613 35.5231934,29.0028076 C35.1149882,29.4405539 34.8625493,30.0541953 34.7658691,30.84375 L39.1325684,30.84375 L39.1325684,30.730957 C39.0895994,29.973629 38.8854999,29.3868429 38.5202637,28.9705811 C38.1550275,28.5543192 37.6608918,28.3461914 37.0378418,28.3461914 Z" id="the" fill="#FFFFFF" fill-rule="nonzero"></path>
        <path d="M190.754395,98.8164551 L187.318555,97.7925293 L187.841895,96.0746094 L191.277734,97.3488281 L191.175342,93.4351563 L192.916016,93.4351563 L192.802246,97.4057129 L196.181201,96.154248 L196.704541,97.8835449 L193.211816,98.9188477 L195.464453,102.002002 L194.053711,103.071436 L191.937598,99.794873 L189.889746,102.991797 L188.467627,101.956494 L190.754395,98.8164551 Z M200.788867,98.8164551 L197.353027,97.7925293 L197.876367,96.0746094 L201.312207,97.3488281 L201.209814,93.4351563 L202.950488,93.4351563 L202.836719,97.4057129 L206.215674,96.154248 L206.739014,97.8835449 L203.246289,98.9188477 L205.498926,102.002002 L204.088184,103.071436 L201.97207,99.794873 L199.924219,102.991797 L198.5021,101.956494 L200.788867,98.8164551 Z M210.82334,98.8164551 L207.3875,97.7925293 L207.91084,96.0746094 L211.34668,97.3488281 L211.244287,93.4351563 L212.984961,93.4351563 L212.871191,97.4057129 L216.250146,96.154248 L216.773486,97.8835449 L213.280762,98.9188477 L215.533398,102.002002 L214.122656,103.071436 L212.006543,99.794873 L209.958691,102.991797 L208.536572,101.956494 L210.82334,98.8164551 Z" id="***" fill="#FFFFFF" fill-rule="nonzero"></path>
    </g>
</svg>